<svg width="1881" height="1881" viewBox="0 0 1881 1881" fill="none" xmlns="http://www.w3.org/2000/svg">
<g filter="url(#filter0_d_25_400)">
<rect x="40.8955" y="36.4062" width="1800" height="1800" rx="320" fill="white"/>
<rect x="41.3955" y="36.9062" width="1799" height="1799" rx="319.5" stroke="white"/>
</g>
<path d="M1054.06 797.195L954.053 890.311L861.22 702.984L909.177 595.273C921.298 573.788 941.121 573.504 953.242 595.273L1054.06 797.195Z" fill="#FFA000"/>
<path d="M954.095 890.272L580.006 1238.21L861.262 702.984L954.095 890.272Z" fill="#F57F17"/>
<path d="M1163.72 654.784C1181.64 637.717 1200.08 643.474 1204.74 667.716L1301.99 1233.51L979.431 1427.16C968.12 1433.49 938.122 1435.96 938.122 1435.96C938.122 1435.96 910.84 1432.63 900.381 1426.88L580.006 1238.21L1163.72 654.784Z" fill="#FFCA28"/>
<path d="M861.261 702.985L580.006 1238.21L705.351 455.903C710.053 431.662 723.796 429.189 736.201 450.674L861.261 702.985Z" fill="#FFA000"/>
<defs>
<filter id="filter0_d_25_400" x="0.895508" y="0.40625" width="1880" height="1880" filterUnits="userSpaceOnUse" color-interpolation-filters="sRGB">
<feFlood flood-opacity="0" result="BackgroundImageFix"/>
<feColorMatrix in="SourceAlpha" type="matrix" values="0 0 0 0 0 0 0 0 0 0 0 0 0 0 0 0 0 0 127 0" result="hardAlpha"/>
<feOffset dy="4"/>
<feGaussianBlur stdDeviation="20"/>
<feComposite in2="hardAlpha" operator="out"/>
<feColorMatrix type="matrix" values="0 0 0 0 0.0367917 0 0 0 0 0.0348958 0 0 0 0 0.0484375 0 0 0 0.1 0"/>
<feBlend mode="normal" in2="BackgroundImageFix" result="effect1_dropShadow_25_400"/>
<feBlend mode="normal" in="SourceGraphic" in2="effect1_dropShadow_25_400" result="shape"/>
</filter>
</defs>
</svg>
