<svg width="1881" height="1881" viewBox="0 0 1881 1881" fill="none" xmlns="http://www.w3.org/2000/svg">
<g filter="url(#filter0_d_33_2245)">
<rect x="40.7241" y="36.4062" width="1800" height="1800" rx="320" fill="white"/>
<rect x="41.2241" y="36.9062" width="1799" height="1799" rx="319.5" stroke="white"/>
</g>
<path d="M809.767 1209.36C809.767 1209.36 771.554 1231.58 836.963 1239.1C916.206 1248.14 956.703 1246.84 1044.03 1230.31C1044.03 1230.31 1066.99 1244.71 1099.05 1257.18C903.293 1341.08 656.006 1252.32 809.767 1209.36V1209.36ZM785.845 1099.87C785.845 1099.87 742.985 1131.6 808.444 1138.37C893.092 1147.1 959.94 1147.82 1075.62 1125.54C1075.62 1125.54 1091.62 1141.76 1116.77 1150.63C880.086 1219.84 616.461 1156.09 785.845 1099.87" fill="#5382A1"/>
<path d="M987.507 914.154C1035.74 969.687 974.835 1019.66 974.835 1019.66C974.835 1019.66 1097.31 956.435 1041.06 877.258C988.53 803.427 948.241 766.737 1166.34 640.25C1166.34 640.25 823.998 725.75 987.507 914.151" fill="#E76F00"/>
<path d="M1246.41 1290.34C1246.41 1290.34 1274.69 1313.64 1215.27 1331.67C1102.28 1365.9 744.971 1376.23 645.713 1333.03C610.033 1317.51 676.945 1295.97 697.991 1291.45C719.941 1286.69 732.487 1287.57 732.487 1287.57C692.806 1259.62 476.007 1342.46 622.365 1366.18C1021.5 1430.91 1349.94 1337.04 1246.41 1290.34ZM828.14 986.436C828.14 986.436 646.396 1029.61 763.782 1045.28C813.345 1051.92 912.149 1050.42 1004.18 1042.7C1079.4 1036.36 1154.92 1022.87 1154.92 1022.87C1154.92 1022.87 1128.4 1034.23 1109.22 1047.33C924.654 1095.87 568.114 1073.29 670.758 1023.64C757.563 981.676 828.143 986.436 828.143 986.436H828.14ZM1154.17 1168.68C1341.79 1071.18 1255.05 977.495 1194.5 990.119C1179.66 993.206 1173.04 995.881 1173.04 995.881C1173.04 995.881 1178.55 987.253 1189.07 983.518C1308.85 941.405 1400.97 1107.72 1150.4 1173.59C1150.4 1173.59 1153.31 1171 1154.17 1168.68" fill="#5382A1"/>
<path d="M1041.06 436.003C1041.06 436.003 1144.97 539.946 942.513 699.772C780.167 827.985 905.493 901.086 942.446 984.609C847.681 899.109 778.135 823.841 824.793 753.791C893.272 650.957 1082.98 601.102 1041.06 436" fill="#E76F00"/>
<path d="M846.578 1432.86C1026.67 1444.39 1303.21 1426.46 1309.76 1341.25C1309.76 1341.25 1297.17 1373.55 1160.93 1399.21C1007.22 1428.13 817.642 1424.76 705.201 1406.22C705.204 1406.22 728.219 1425.27 846.581 1432.86" fill="#5382A1"/>
<defs>
<filter id="filter0_d_33_2245" x="0.724121" y="0.40625" width="1880" height="1880" filterUnits="userSpaceOnUse" color-interpolation-filters="sRGB">
<feFlood flood-opacity="0" result="BackgroundImageFix"/>
<feColorMatrix in="SourceAlpha" type="matrix" values="0 0 0 0 0 0 0 0 0 0 0 0 0 0 0 0 0 0 127 0" result="hardAlpha"/>
<feOffset dy="4"/>
<feGaussianBlur stdDeviation="20"/>
<feComposite in2="hardAlpha" operator="out"/>
<feColorMatrix type="matrix" values="0 0 0 0 0.0367917 0 0 0 0 0.0348958 0 0 0 0 0.0484375 0 0 0 0.1 0"/>
<feBlend mode="normal" in2="BackgroundImageFix" result="effect1_dropShadow_33_2245"/>
<feBlend mode="normal" in="SourceGraphic" in2="effect1_dropShadow_33_2245" result="shape"/>
</filter>
</defs>
</svg>
