<svg width="1881" height="1881" viewBox="0 0 1881 1881" fill="none" xmlns="http://www.w3.org/2000/svg">
<g filter="url(#filter0_d_22_683)">
<rect x="40.3433" y="36.4062" width="1800" height="1800" rx="320" fill="white"/>
<rect x="40.8433" y="36.9062" width="1799" height="1799" rx="319.5" stroke="white"/>
</g>
<path d="M936.804 387.043L966.545 442.902C973.231 453.21 980.474 462.334 989.007 470.831C1014.02 495.533 1037.34 521.897 1058.8 549.743C1109.19 615.91 1143.18 689.39 1167.45 768.859C1182 817.405 1189.91 867.204 1190.5 917.56C1192.94 1068.11 1141.33 1197.38 1037.27 1304.81C1020.35 1321.85 1002.06 1337.48 982.599 1351.54C972.291 1351.54 967.415 1343.64 963.167 1336.36C955.43 1322.86 950.28 1308.04 947.983 1292.66C944.327 1274.44 941.924 1256.23 943.108 1237.42V1228.93C942.272 1227.12 933.183 391.326 936.804 387.043V387.043Z" fill="#599636"/>
<path d="M936.805 385.198C935.586 382.76 934.367 384.606 933.148 385.79C933.74 397.979 929.492 408.844 922.84 419.222C915.527 429.53 905.846 437.435 896.13 445.932C842.151 492.667 799.665 549.117 765.642 612.254C720.37 697.226 697.037 788.292 690.421 884.165C687.391 918.745 701.355 1040.77 712.256 1075.98C741.996 1169.45 795.417 1247.77 864.613 1315.75C881.608 1332.11 899.786 1347.3 918.591 1361.89C924.059 1361.89 924.651 1357.01 925.905 1353.39C928.302 1345.64 930.129 1337.73 931.372 1329.71L943.561 1238.68L936.805 385.198Z" fill="#6CAC48"/>
<path d="M966.545 1388.53C967.764 1374.6 974.45 1363.04 981.728 1351.51C974.415 1348.48 968.983 1342.45 964.734 1335.73C961.07 1329.37 958.038 1322.66 955.68 1315.71C947.182 1290.22 945.371 1263.47 942.934 1237.42V1221.65C939.904 1224.09 939.277 1244.7 939.277 1247.77C937.505 1275.3 933.852 1302.68 928.342 1329.71C926.531 1340.64 925.312 1351.54 918.591 1361.26C918.591 1362.48 918.591 1363.7 919.183 1365.51C930.118 1397.69 933.113 1430.46 934.959 1463.85V1476.04C934.959 1490.6 934.367 1487.53 946.451 1492.41C951.326 1494.22 956.759 1494.85 961.635 1498.47C965.291 1498.47 965.883 1495.44 965.883 1493L964.072 1472.98V1417.12C963.48 1407.37 965.291 1397.69 966.51 1388.56L966.545 1388.53Z" fill="#C2BFBF"/>
<defs>
<filter id="filter0_d_22_683" x="0.343262" y="0.40625" width="1880" height="1880" filterUnits="userSpaceOnUse" color-interpolation-filters="sRGB">
<feFlood flood-opacity="0" result="BackgroundImageFix"/>
<feColorMatrix in="SourceAlpha" type="matrix" values="0 0 0 0 0 0 0 0 0 0 0 0 0 0 0 0 0 0 127 0" result="hardAlpha"/>
<feOffset dy="4"/>
<feGaussianBlur stdDeviation="20"/>
<feComposite in2="hardAlpha" operator="out"/>
<feColorMatrix type="matrix" values="0 0 0 0 0.0367917 0 0 0 0 0.0348958 0 0 0 0 0.0484375 0 0 0 0.1 0"/>
<feBlend mode="normal" in2="BackgroundImageFix" result="effect1_dropShadow_22_683"/>
<feBlend mode="normal" in="SourceGraphic" in2="effect1_dropShadow_22_683" result="shape"/>
</filter>
</defs>
</svg>
