<svg width="1881" height="1881" viewBox="0 0 1881 1881" fill="none" xmlns="http://www.w3.org/2000/svg">
<g filter="url(#filter0_d_301_8893)">
<rect x="40.0674" y="36.4058" width="1800" height="1800" rx="320" fill="#1D1F23"/>
<rect x="40.5674" y="36.9058" width="1799" height="1799" rx="319.5" stroke="black"/>
</g>
<path fill-rule="evenodd" clip-rule="evenodd" d="M647.703 537.696C590.645 537.696 548.424 587.637 550.314 641.797C552.129 693.831 549.771 761.221 532.807 816.178C515.781 871.29 487.008 906.213 440 910.696V961.305C487.008 965.797 515.781 1000.7 532.805 1055.82C549.771 1110.78 552.127 1178.17 550.312 1230.2C548.422 1284.36 590.643 1334.31 647.711 1334.31H1232.37C1289.43 1334.31 1331.64 1284.36 1329.75 1230.2C1327.94 1178.17 1330.3 1110.78 1347.26 1055.82C1364.29 1000.7 1392.99 965.784 1440 961.305V910.696C1392.99 906.204 1364.29 871.297 1347.26 816.178C1330.29 761.229 1327.94 693.831 1329.75 641.797C1331.64 587.645 1289.43 537.696 1232.37 537.696H647.695H647.703ZM1117.97 1028.06C1117.97 1102.64 1062.34 1147.87 970.025 1147.87H812.881C808.386 1147.87 804.075 1146.08 800.896 1142.9C797.717 1139.72 795.932 1135.41 795.932 1130.92V741.086C795.932 736.591 797.717 732.28 800.896 729.102C804.075 725.923 808.386 724.137 812.881 724.137H969.131C1046.11 724.137 1096.62 765.833 1096.62 829.848C1096.62 874.78 1062.64 915.004 1019.34 922.051V924.395C1078.28 930.86 1117.97 971.68 1117.97 1028.06V1028.06ZM952.891 777.866H863.289V904.428H938.756C997.096 904.428 1029.26 880.936 1029.26 838.946C1029.26 799.594 1001.6 777.866 952.891 777.866ZM863.289 954.645V1094.12H956.187C1016.93 1094.12 1049.1 1069.75 1049.1 1023.94C1049.1 978.137 1016.03 954.637 952.281 954.637H863.289V954.645Z" fill="#7952B3"/>
<defs>
<filter id="filter0_d_301_8893" x="0.0673828" y="0.405762" width="1880" height="1880" filterUnits="userSpaceOnUse" color-interpolation-filters="sRGB">
<feFlood flood-opacity="0" result="BackgroundImageFix"/>
<feColorMatrix in="SourceAlpha" type="matrix" values="0 0 0 0 0 0 0 0 0 0 0 0 0 0 0 0 0 0 127 0" result="hardAlpha"/>
<feOffset dy="4"/>
<feGaussianBlur stdDeviation="20"/>
<feComposite in2="hardAlpha" operator="out"/>
<feColorMatrix type="matrix" values="0 0 0 0 0.0367917 0 0 0 0 0.0348958 0 0 0 0 0.0484375 0 0 0 0.1 0"/>
<feBlend mode="normal" in2="BackgroundImageFix" result="effect1_dropShadow_301_8893"/>
<feBlend mode="normal" in="SourceGraphic" in2="effect1_dropShadow_301_8893" result="shape"/>
</filter>
</defs>
</svg>
