<svg width="1881" height="1881" viewBox="0 0 1881 1881" fill="none" xmlns="http://www.w3.org/2000/svg">
<g filter="url(#filter0_d_301_8804)">
<rect x="40.8955" y="36.4062" width="1800" height="1800" rx="320" fill="#1D1F23"/>
<rect x="41.3955" y="36.9062" width="1799" height="1799" rx="319.5" stroke="black"/>
</g>
<path fill-rule="evenodd" clip-rule="evenodd" d="M1026.32 550.494L1231.67 669.059C1237.6 662.786 1244.4 657.402 1251.87 653.074C1294.46 628.591 1348.78 643.127 1373.51 685.717C1398 728.306 1383.46 782.624 1340.87 807.361C1333.46 811.629 1325.47 814.81 1317.16 816.804V1054.02C1325.38 1056.02 1333.28 1059.18 1340.62 1063.4C1383.46 1088.14 1398 1142.46 1373.26 1185.05C1348.78 1227.63 1294.2 1242.17 1251.61 1217.69C1243.36 1212.96 1235.93 1206.92 1229.6 1199.82L1025.5 1317.66C1028.49 1326.71 1030.01 1336.18 1030 1345.71C1030 1394.67 990.22 1434.71 940.999 1434.71C891.779 1434.71 851.998 1394.93 851.998 1345.71C851.998 1336.96 853.255 1328.51 855.598 1320.53L650.306 1202C644.443 1208.15 637.735 1213.43 630.385 1217.69C587.542 1242.17 533.221 1227.63 508.737 1185.05C484.257 1142.46 498.794 1088.14 541.38 1063.4C548.716 1059.18 556.616 1056.02 564.843 1054.02V816.804C556.525 814.81 548.538 811.629 541.126 807.361C498.537 782.881 484 728.306 508.484 685.717C532.967 643.127 587.538 628.591 630.128 653.074C637.554 657.379 644.324 662.728 650.23 668.958L855.636 550.362C853.215 542.144 851.99 533.62 851.998 525.052C851.998 475.838 891.779 436.051 940.999 436.051C990.22 436.051 1030 475.835 1030 525.052C1030 533.899 1028.72 542.436 1026.32 550.494ZM1004.93 587.025L1210.77 705.868C1207.49 717.325 1206.55 729.324 1208 741.152C1209.46 752.98 1213.27 764.395 1219.23 774.718C1231.76 796.515 1252.17 810.965 1274.82 816.596V1054.11C1273.67 1054.39 1272.52 1054.7 1271.38 1055.02L1002.54 589.403C1003.35 588.626 1004.15 587.834 1004.93 587.029V587.025ZM879.516 589.456L610.682 1055.07C609.519 1054.73 608.35 1054.42 607.175 1054.13V816.596C629.829 810.965 650.24 796.515 662.77 774.718C668.736 764.376 672.557 752.937 674.005 741.085C675.453 729.233 674.498 717.21 671.197 705.736L876.974 586.928C877.804 587.786 878.651 588.629 879.516 589.452V589.456ZM965.868 610.547L1234.64 1076.06C1228.48 1081.93 1223.21 1088.66 1218.97 1096.04C1214.75 1103.38 1211.59 1111.28 1209.59 1119.51H672.415C670.414 1111.28 667.253 1103.38 663.027 1096.04C658.778 1088.71 653.511 1082.02 647.383 1076.17L916.207 610.568C924.266 612.889 932.612 614.062 940.999 614.054C949.634 614.054 957.977 612.832 965.868 610.547ZM1006.82 1285.75L1211.32 1167.68C1210.71 1165.75 1210.16 1163.8 1209.68 1161.84H672.301C672.016 1163 671.707 1164.14 671.377 1165.28L876.877 1283.93C885.176 1275.31 895.135 1268.44 906.155 1263.77C917.174 1259.09 929.027 1256.69 940.999 1256.71C953.39 1256.69 965.648 1259.26 976.984 1264.26C988.32 1269.26 998.483 1276.58 1006.82 1285.75V1285.75Z" fill="#E535AB"/>
<defs>
<filter id="filter0_d_301_8804" x="0.895508" y="0.40625" width="1880" height="1880" filterUnits="userSpaceOnUse" color-interpolation-filters="sRGB">
<feFlood flood-opacity="0" result="BackgroundImageFix"/>
<feColorMatrix in="SourceAlpha" type="matrix" values="0 0 0 0 0 0 0 0 0 0 0 0 0 0 0 0 0 0 127 0" result="hardAlpha"/>
<feOffset dy="4"/>
<feGaussianBlur stdDeviation="20"/>
<feComposite in2="hardAlpha" operator="out"/>
<feColorMatrix type="matrix" values="0 0 0 0 0.0367917 0 0 0 0 0.0348958 0 0 0 0 0.0484375 0 0 0 0.1 0"/>
<feBlend mode="normal" in2="BackgroundImageFix" result="effect1_dropShadow_301_8804"/>
<feBlend mode="normal" in="SourceGraphic" in2="effect1_dropShadow_301_8804" result="shape"/>
</filter>
</defs>
</svg>
