<svg width="1881" height="1881" viewBox="0 0 1881 1881" fill="none" xmlns="http://www.w3.org/2000/svg">
<g filter="url(#filter0_d_301_8817)">
<rect x="40.9561" y="36.0288" width="1800" height="1800" rx="320" fill="#1D1F23"/>
<rect x="41.4561" y="36.5288" width="1799" height="1799" rx="319.5" stroke="black"/>
</g>
<path d="M901.056 449.669C925.852 435.476 958.148 435.412 982.922 449.669C1107.56 520.094 1232.23 590.41 1356.85 660.878C1380.29 674.081 1395.96 700.166 1395.73 727.173V1150.88C1395.9 1179.01 1378.67 1205.71 1353.94 1218.62C1229.72 1288.66 1105.56 1358.78 981.351 1428.82C956.043 1443.29 923.099 1442.17 898.581 1426.52C861.338 1404.93 824.031 1383.44 786.785 1361.87C779.174 1357.34 770.594 1353.73 765.22 1346.35C769.971 1339.94 778.465 1339.14 785.367 1336.35C800.913 1331.4 815.191 1323.47 829.473 1315.77C833.085 1313.3 837.494 1314.25 840.956 1316.46C872.803 1334.72 904.369 1353.51 936.323 1371.59C943.14 1375.53 950.042 1370.3 955.869 1367.06C1077.77 1298.16 1199.83 1229.52 1321.71 1160.6C1326.23 1158.43 1328.72 1153.63 1328.36 1148.69C1328.44 1008.92 1328.38 869.118 1328.4 729.345C1328.91 723.732 1325.67 718.572 1320.59 716.274C1196.8 646.557 1073.06 576.733 949.29 506.999C947.146 505.524 944.606 504.733 942.003 504.729C939.401 504.726 936.858 505.509 934.709 506.977C810.935 576.733 687.225 646.621 563.451 716.335C558.394 718.636 555 723.711 555.602 729.345C555.623 869.118 555.602 1008.92 555.602 1148.71C555.387 1151.12 555.917 1153.54 557.121 1155.65C558.324 1157.75 560.143 1159.43 562.333 1160.47C595.363 1179.2 628.435 1197.8 661.486 1216.47C680.106 1226.49 702.967 1232.44 723.482 1224.77C741.585 1218.27 754.275 1199.8 753.929 1180.58C754.1 1041.62 753.844 902.642 754.058 763.707C753.605 757.538 759.457 752.442 765.455 753.022C781.325 752.915 797.216 752.809 813.087 753.065C819.711 752.915 824.27 759.558 823.451 765.773C823.387 905.609 823.622 1045.45 823.344 1185.29C823.387 1222.55 808.075 1263.11 773.603 1281.34C731.136 1303.34 678.646 1298.67 636.691 1277.58C600.37 1259.45 565.709 1238.06 530.034 1218.64C505.242 1205.8 488.1 1178.99 488.275 1150.88V727.173C488.015 699.606 504.316 673.048 528.484 660.038C652.689 589.943 776.873 519.795 901.056 449.669Z" fill="#8CC84B"/>
<path d="M1009.41 743.174C1063.58 739.687 1121.58 741.108 1170.32 767.795C1208.06 788.245 1228.99 831.165 1229.65 873.095C1228.6 878.751 1222.69 881.871 1217.29 881.483C1201.57 881.461 1185.85 881.696 1170.13 881.376C1163.47 881.632 1159.59 875.485 1158.75 869.591C1154.24 849.529 1143.3 829.659 1124.41 819.982C1095.43 805.469 1061.82 806.199 1030.21 806.502C1007.13 807.727 982.32 809.725 962.771 823.294C947.762 833.573 943.204 854.322 948.56 871.033C953.61 883.032 967.461 886.903 978.794 890.472C1044.08 907.546 1113.26 905.847 1177.29 928.317C1203.8 937.477 1229.74 955.285 1238.81 983.043C1250.69 1020.25 1245.48 1064.72 1219.01 1094.58C1197.55 1119.16 1166.28 1132.54 1135.1 1139.8C1093.62 1149.05 1050.57 1149.29 1008.45 1145.18C968.836 1140.67 927.615 1130.26 897.035 1103.27C870.887 1080.57 858.115 1045.19 859.383 1011.04C859.686 1005.28 865.427 1001.26 870.951 1001.73C886.778 1001.6 902.606 1001.56 918.433 1001.75C924.755 1001.3 929.442 1006.76 929.766 1012.72C932.686 1031.84 939.87 1051.9 956.538 1063.23C988.706 1083.98 1029.07 1082.56 1065.9 1083.14C1096.42 1081.79 1130.67 1081.38 1155.57 1061.21C1168.71 1049.71 1172.61 1030.46 1169.05 1013.9C1165.21 999.925 1150.58 993.411 1138.03 989.151C1073.58 968.765 1003.63 976.163 939.806 953.109C913.896 943.952 888.84 926.639 878.886 900.021C864.996 862.347 871.36 815.747 900.604 786.888C929.118 758.182 970.278 747.127 1009.41 743.171V743.174Z" fill="#8CC84B"/>
<defs>
<filter id="filter0_d_301_8817" x="0.956055" y="0.0288086" width="1880" height="1880" filterUnits="userSpaceOnUse" color-interpolation-filters="sRGB">
<feFlood flood-opacity="0" result="BackgroundImageFix"/>
<feColorMatrix in="SourceAlpha" type="matrix" values="0 0 0 0 0 0 0 0 0 0 0 0 0 0 0 0 0 0 127 0" result="hardAlpha"/>
<feOffset dy="4"/>
<feGaussianBlur stdDeviation="20"/>
<feComposite in2="hardAlpha" operator="out"/>
<feColorMatrix type="matrix" values="0 0 0 0 0.0367917 0 0 0 0 0.0348958 0 0 0 0 0.0484375 0 0 0 0.1 0"/>
<feBlend mode="normal" in2="BackgroundImageFix" result="effect1_dropShadow_301_8817"/>
<feBlend mode="normal" in="SourceGraphic" in2="effect1_dropShadow_301_8817" result="shape"/>
</filter>
</defs>
</svg>
