<svg width="1881" height="1881" viewBox="0 0 1881 1881" fill="none" xmlns="http://www.w3.org/2000/svg">
<g filter="url(#filter0_d_301_8816)">
<rect x="40.4482" y="36.4062" width="1800" height="1800" rx="320" fill="#1D1F23"/>
<rect x="40.9482" y="36.9062" width="1799" height="1799" rx="319.5" stroke="black"/>
</g>
<path d="M1421.08 1035.02C1415.26 1017.36 1400.03 1005.07 1380.34 1002.12C1371.05 1000.73 1360.42 1001.32 1347.83 1003.92C1325.89 1008.46 1309.62 1010.19 1297.74 1010.52C1342.57 934.619 1379.03 848.063 1400.02 766.585C1433.95 634.837 1415.82 574.818 1394.63 547.67C1338.54 475.812 1256.72 437.21 1158.01 436.029C1105.36 435.383 1059.13 445.808 1035.01 453.306C1012.56 449.333 988.421 447.115 963.09 446.705C915.607 445.945 873.652 456.325 837.804 477.658C817.957 470.928 786.105 461.441 749.32 455.387C662.806 441.144 593.079 452.242 542.076 488.372C480.317 532.117 451.688 608.122 456.983 714.276C458.664 747.979 477.465 850.524 507.068 947.775C524.082 1003.67 542.224 1050.09 560.991 1085.75C587.606 1136.32 616.084 1166.1 648.054 1176.8C665.973 1182.79 698.53 1186.98 732.773 1158.38C737.113 1163.65 742.904 1168.89 750.589 1173.75C760.35 1179.93 772.284 1184.97 784.203 1187.96C827.157 1198.73 867.392 1196.03 901.718 1180.94C901.93 1187.06 902.093 1192.91 902.229 1197.96C902.456 1206.15 902.684 1214.19 902.983 1221.7C905.017 1272.49 908.463 1311.99 918.674 1339.62C919.235 1341.14 919.989 1343.46 920.784 1345.92C925.878 1361.56 934.396 1387.74 956.068 1408.24C978.509 1429.49 1005.65 1436 1030.52 1436C1042.98 1436 1054.88 1434.36 1065.31 1432.12C1102.51 1424.12 1144.75 1411.95 1175.31 1368.32C1204.2 1327.07 1218.24 1264.95 1220.78 1167.06C1221.11 1164.29 1221.42 1161.65 1221.71 1159.13L1222.31 1153.96L1229.12 1154.56L1230.87 1154.68C1268.76 1156.41 1315.08 1148.35 1343.53 1135.1C1366 1124.64 1438.04 1086.51 1421.08 1035.02" fill="black"/>
<path d="M1356.31 1045.03C1243.67 1068.34 1235.92 1030.09 1235.92 1030.09C1354.85 853.135 1404.57 628.511 1361.67 573.535C1244.62 423.572 1042 494.496 1038.62 496.334L1037.53 496.531C1015.28 491.898 990.377 489.14 962.383 488.681C911.419 487.845 872.756 502.08 843.418 524.389C843.418 524.389 481.977 375.076 498.79 712.177C502.365 783.89 601.294 1254.8 719.29 1112.57C762.418 1060.55 804.092 1016.58 804.092 1016.58C824.787 1030.36 849.565 1037.4 875.54 1034.87L877.558 1033.15C876.93 1039.61 877.218 1045.93 878.365 1053.41C847.967 1087.46 856.901 1093.44 796.135 1105.98C734.645 1118.69 770.766 1141.31 794.351 1147.23C822.943 1154.4 889.088 1164.55 933.78 1101.81L932 1108.97C943.908 1118.54 952.271 1171.2 950.869 1218.93C949.468 1266.67 948.532 1299.44 957.914 1325.04C967.303 1350.64 976.655 1408.23 1056.54 1391.07C1123.29 1376.72 1157.88 1339.55 1162.69 1277.55C1166.11 1233.47 1173.84 1239.98 1174.32 1200.57L1180.52 1181.92C1187.67 1122.16 1181.66 1102.89 1222.78 1111.85L1232.78 1112.73C1263.04 1114.11 1302.66 1107.85 1325.91 1097.01C1375.97 1073.72 1405.66 1034.81 1356.3 1045.03H1356.31" fill="#336791"/>
<path d="M864.574 744.246C854.424 742.83 845.231 744.14 840.58 747.672C837.967 749.659 837.156 751.96 836.937 753.544C836.354 757.741 839.285 762.382 841.088 764.774C846.186 771.55 853.632 776.206 861.003 777.232C862.071 777.384 863.135 777.452 864.192 777.452C876.482 777.452 887.659 767.855 888.644 760.771C889.875 751.899 877.031 745.986 864.574 744.25V744.246ZM1200.84 744.528C1199.87 737.573 1187.53 735.591 1175.82 737.224C1164.13 738.857 1152.79 744.152 1153.73 751.121C1154.49 756.54 1164.25 765.792 1175.8 765.792C1176.78 765.792 1177.77 765.728 1178.76 765.587C1186.47 764.516 1192.13 759.605 1194.82 756.776C1198.91 752.461 1201.28 747.653 1200.84 744.528" fill="white"/>
<path d="M1393.79 1042.39C1389.49 1029.36 1375.67 1025.17 1352.7 1029.93C1284.51 1044.04 1260.09 1034.27 1252.07 1028.35C1305.07 947.373 1348.68 849.492 1372.2 758.169C1383.35 714.91 1389.5 674.735 1390 641.989C1390.56 606.049 1384.46 579.638 1371.87 563.504C1321.11 498.463 1246.61 463.575 1156.43 462.618C1094.43 461.919 1042.05 477.829 1031.89 482.303C1010.51 476.971 987.196 473.697 961.816 473.279C915.275 472.523 875.044 483.697 841.736 506.473C827.268 501.073 789.878 488.201 744.151 480.814C665.099 468.053 602.279 477.723 557.45 509.569C503.959 547.571 479.265 615.502 484.048 711.469C485.658 743.756 504.005 843.081 532.956 938.201C571.066 1063.4 612.494 1134.27 656.081 1148.85C661.182 1150.56 667.064 1151.75 673.552 1151.75C689.452 1151.75 708.947 1144.56 729.229 1120.11C753.967 1090.35 779.557 1061.32 805.967 1033.04C823.102 1042.26 841.926 1047.41 861.178 1047.93C861.216 1048.43 861.265 1048.94 861.31 1049.44C857.996 1053.4 854.751 1057.42 851.576 1061.5C838.237 1078.48 835.461 1082.02 792.522 1090.88C780.307 1093.41 747.867 1100.11 747.39 1122.92C746.875 1147.83 785.738 1158.29 790.166 1159.4C805.596 1163.28 820.462 1165.19 834.639 1165.19C869.116 1165.19 899.458 1153.82 923.706 1131.84C922.96 1220.66 926.652 1308.18 937.288 1334.84C945.999 1356.67 967.277 1410.02 1034.49 1410.02C1044.35 1410.02 1055.21 1408.87 1067.15 1406.3C1137.3 1391.22 1167.76 1360.13 1179.54 1291.59C1185.85 1254.96 1196.67 1167.49 1201.76 1120.57C1212.5 1123.93 1226.33 1125.47 1241.28 1125.46C1272.46 1125.46 1308.44 1118.82 1331 1108.32C1356.34 1096.52 1402.08 1067.55 1393.79 1042.39V1042.39ZM1226.74 725.332C1226.51 739.183 1224.6 751.758 1222.59 764.884C1220.42 779.001 1218.18 793.597 1217.61 811.314C1217.06 828.557 1219.2 846.484 1221.28 863.821C1225.48 898.839 1229.78 934.889 1213.11 970.461C1210.34 965.541 1207.88 960.456 1205.73 955.235C1203.66 950.199 1199.16 942.109 1192.93 930.913C1168.69 887.327 1111.93 785.26 1140.99 743.611C1149.64 731.215 1171.61 718.469 1226.74 725.332V725.332ZM1159.91 490.666C1240.71 492.455 1304.63 522.767 1349.88 580.754C1384.59 625.232 1346.37 827.615 1235.73 1002.21C1234.62 1000.79 1233.5 999.379 1232.37 997.97L1230.97 996.215C1259.56 948.866 1253.97 902.018 1249 860.483C1246.95 843.438 1245.02 827.338 1245.51 812.214C1246.02 796.187 1248.13 782.438 1250.18 769.145C1252.69 752.765 1255.24 735.814 1254.54 715.833C1255.07 713.737 1255.28 711.26 1255 708.321C1253.2 689.16 1231.39 631.814 1186.92 579.911C1162.6 551.521 1127.13 519.751 1078.7 498.323C1099.53 493.993 1128.02 489.956 1159.91 490.666V490.666ZM707.765 1102.22C685.419 1129.16 669.988 1123.99 664.913 1122.3C631.848 1111.24 593.481 1041.16 559.655 930.031C530.385 833.874 513.28 737.182 511.924 710.068C507.652 624.317 528.381 564.556 573.54 532.44C647.032 480.18 767.861 511.46 816.413 527.324C815.716 528.015 814.989 528.661 814.3 529.364C734.626 610.048 736.516 747.899 736.713 756.327C736.705 759.578 736.978 764.181 737.349 770.513C738.72 793.699 741.273 836.852 734.455 885.72C728.123 931.133 742.083 975.581 772.751 1007.67C775.898 1010.96 779.206 1014.09 782.663 1017.04C769.013 1031.7 739.345 1064.12 707.765 1102.22V1102.22ZM792.904 988.304C768.187 962.44 756.961 926.465 762.1 889.594C769.297 837.972 766.642 793.012 765.214 768.857C765.013 765.476 764.835 762.514 764.733 760.178C776.372 749.829 830.31 720.85 868.775 729.688C886.327 733.718 897.023 745.704 901.469 766.32C924.482 873.054 904.514 917.54 888.471 953.29C885.164 960.655 882.039 967.616 879.373 974.817L877.305 980.385C872.071 994.46 867.2 1007.55 864.181 1019.98C837.904 1019.9 812.342 1008.64 792.904 988.3V988.304ZM796.938 1132.25C789.264 1130.33 782.364 1126.99 778.315 1124.22C781.697 1122.62 787.715 1120.45 798.154 1118.29C848.668 1107.87 856.47 1100.51 873.506 1078.82C877.411 1073.84 881.839 1068.21 887.971 1061.34L887.978 1061.33C897.11 1051.08 901.287 1052.82 908.862 1055.97C915.002 1058.51 920.982 1066.23 923.406 1074.72C924.554 1078.73 925.842 1086.34 921.626 1092.27C886.039 1142.24 834.18 1141.59 796.938 1132.25V1132.25ZM1061.3 1378.93C999.505 1392.21 977.625 1360.59 963.206 1324.45C953.9 1301.11 949.324 1195.89 952.57 1079.68C952.612 1078.13 952.392 1076.64 951.968 1075.24C951.589 1072.46 951.011 1069.72 950.241 1067.02C945.416 1050.12 933.655 1035.97 919.547 1030.11C913.941 1027.78 903.655 1023.51 891.292 1026.68C893.928 1015.79 898.5 1003.48 903.458 990.165L905.537 984.563C907.878 978.247 910.817 971.703 913.923 964.775C930.713 927.373 953.706 876.142 928.751 760.406C919.403 717.056 888.186 695.886 840.865 700.804C812.497 703.748 786.541 715.225 773.596 721.807C770.812 723.22 768.266 724.587 765.888 725.917C769.501 682.24 783.151 600.614 834.215 548.969C866.367 516.458 909.184 500.4 961.353 501.266C1064.15 502.953 1130.06 555.851 1167.26 599.934C1199.32 637.918 1216.68 676.182 1223.61 696.82C1171.51 691.507 1136.08 701.819 1118.12 727.569C1079.04 783.581 1139.49 892.295 1168.55 944.544C1173.88 954.118 1178.48 962.394 1179.92 965.911C1189.38 988.904 1201.63 1004.26 1210.58 1015.46C1213.32 1018.89 1215.98 1022.22 1218 1025.13C1202.22 1029.69 1173.88 1040.23 1176.46 1092.92C1174.38 1119.35 1159.56 1243.11 1152.04 1286.84C1142.1 1344.6 1120.91 1366.12 1061.3 1378.94V1378.93ZM1319.25 1082.93C1303.11 1090.44 1276.11 1096.08 1250.46 1097.29C1222.13 1098.62 1207.71 1094.1 1204.31 1091.33C1202.72 1058.5 1214.91 1055.07 1227.8 1051.44C1229.83 1050.87 1231.81 1050.31 1233.72 1049.64C1234.9 1050.61 1236.2 1051.57 1237.63 1052.51C1260.4 1067.58 1301.01 1069.21 1358.35 1057.34L1358.98 1057.21C1351.24 1064.46 1338.01 1074.2 1319.25 1082.93Z" fill="white"/>
<defs>
<filter id="filter0_d_301_8816" x="0.448242" y="0.40625" width="1880" height="1880" filterUnits="userSpaceOnUse" color-interpolation-filters="sRGB">
<feFlood flood-opacity="0" result="BackgroundImageFix"/>
<feColorMatrix in="SourceAlpha" type="matrix" values="0 0 0 0 0 0 0 0 0 0 0 0 0 0 0 0 0 0 127 0" result="hardAlpha"/>
<feOffset dy="4"/>
<feGaussianBlur stdDeviation="20"/>
<feComposite in2="hardAlpha" operator="out"/>
<feColorMatrix type="matrix" values="0 0 0 0 0.0367917 0 0 0 0 0.0348958 0 0 0 0 0.0484375 0 0 0 0.1 0"/>
<feBlend mode="normal" in2="BackgroundImageFix" result="effect1_dropShadow_301_8816"/>
<feBlend mode="normal" in="SourceGraphic" in2="effect1_dropShadow_301_8816" result="shape"/>
</filter>
</defs>
</svg>
