<svg width="1881" height="1881" viewBox="0 0 1881 1881" fill="none" xmlns="http://www.w3.org/2000/svg">
<g filter="url(#filter0_d_301_8885)">
<rect x="40.1719" y="36.4062" width="1800" height="1800" rx="320" fill="#1D1F23"/>
<rect x="40.6719" y="36.9062" width="1799" height="1799" rx="319.5" stroke="black"/>
</g>
<path d="M1335.73 630.398C1275.28 552.125 1192.98 493.535 1099.23 462.039C1005.49 430.542 904.507 427.554 809.062 453.452C713.617 479.35 627.996 532.971 563.027 607.533C498.059 682.095 456.661 774.249 444.069 872.34C431.478 970.432 448.259 1070.05 492.289 1158.61C536.319 1247.16 605.622 1320.67 691.431 1369.83C777.241 1419 875.703 1441.61 974.365 1434.81C1073.03 1428.02 1167.46 1392.11 1245.71 1331.64C1464.15 1162.83 1504.46 848.912 1335.71 630.398H1335.73Z" fill="#FF6C37"/>
<path d="M1108.63 754.585L897.809 967.083L838.231 905.834C1045.73 698.335 1066.56 717.085 1108.65 754.585H1108.63Z" fill="white"/>
<path d="M897.809 972.896C895.942 972.85 894.159 972.109 892.809 970.818L832.81 910.818C831.459 909.42 830.704 907.552 830.704 905.607C830.704 903.663 831.459 901.795 832.81 900.396C1037.39 695.82 1065.31 705.398 1113.64 749.148C1114.44 749.795 1115.09 750.622 1115.53 751.563C1115.96 752.505 1116.17 753.534 1116.14 754.57C1116.45 756.601 1115.67 758.679 1114.06 759.991L903.231 970.833C901.753 972.189 899.815 972.931 897.809 972.911V972.896ZM848.638 905.818L897.809 954.99L1097.81 754.991C1090.9 746.338 1081.05 740.533 1070.13 738.688C1059.22 736.843 1048 739.087 1038.64 744.992C1002.39 761.241 944.059 810.819 848.638 905.818V905.818Z" fill="#FF6C37"/>
<path d="M958.229 1025.83L900.729 967.081L1111.56 758.74C1168.23 814.161 1084.06 906.66 958.229 1025.81V1025.83Z" fill="white"/>
<path d="M958.231 1033.33C956.386 1033.18 954.636 1032.46 953.231 1031.25L894.481 973.753C893.6 971.617 893.6 969.218 894.481 967.081C893.857 965.328 893.857 963.413 894.481 961.66L1105.31 750.834C1106.77 749.456 1108.71 748.689 1110.72 748.689C1112.73 748.689 1114.67 749.456 1116.14 750.834C1122.96 757.118 1128.36 764.799 1131.95 773.354C1135.55 781.908 1137.25 791.137 1136.96 800.412C1136.96 856.661 1072.79 927.488 963.637 1030.83C962.179 1032.27 960.26 1033.16 958.215 1033.33H958.231ZM911.559 967.081L958.637 1014.14C1041.96 935.394 1121.56 854.145 1121.96 799.146C1122.42 787.486 1118.56 776.068 1111.14 767.068L911.559 967.081Z" fill="#FF6C37"/>
<path d="M839.888 907.084L881.56 948.755C881.826 948.99 882.039 949.279 882.185 949.602C882.331 949.925 882.406 950.276 882.406 950.63C882.406 950.985 882.331 951.336 882.185 951.659C882.039 951.982 881.826 952.271 881.56 952.505L793.639 971.255C791.864 971.638 790.013 971.431 788.367 970.664C786.721 969.898 785.37 968.615 784.521 967.01C783.672 965.405 783.37 963.567 783.662 961.775C783.954 959.983 784.824 958.335 786.139 957.083L837.388 906.256C837.388 906.256 839.06 906.256 839.888 907.084Z" fill="white"/>
<path d="M791.56 979.582C788.782 979.547 786.06 978.801 783.653 977.414C781.245 976.027 779.234 974.046 777.81 971.661C776.208 968.639 775.627 965.179 776.154 961.8C776.68 958.42 778.287 955.302 780.732 952.911L831.56 901.661C833.393 900.023 835.765 899.117 838.224 899.117C840.682 899.117 843.055 900.023 844.888 901.661L886.559 943.333C889.028 945.676 889.997 949.223 889.059 952.505C888.122 955.786 885.372 958.395 881.981 959.176L794.06 977.926L791.56 979.582ZM838.232 916.255L791.154 963.333L869.075 946.661L838.232 916.255Z" fill="#FF6C37"/>
<path d="M1220.73 637.492C1190.57 608.399 1143.2 607.18 1111.57 634.633C1079.95 662.086 1074.54 709.21 1099.17 743.116C1123.79 777.022 1170.21 786.522 1206.15 764.991L1149.48 708.32L1220.73 637.492Z" fill="white"/>
<path d="M1164.48 784.148C1147.15 783.926 1130.28 778.611 1115.95 768.864C1101.63 759.117 1090.48 745.37 1083.92 729.336C1077.35 713.314 1075.63 695.72 1078.97 678.729C1082.3 661.739 1090.54 646.099 1102.67 633.743C1119.35 617.368 1141.79 608.193 1165.17 608.193C1188.54 608.193 1210.99 617.368 1227.67 633.743C1229.26 635.087 1230.17 637.071 1230.17 639.165C1230.16 640.195 1229.94 641.212 1229.51 642.148C1229.08 643.083 1228.45 643.915 1227.67 644.587L1160.17 708.336L1211.42 758.758C1212.25 759.551 1212.87 760.535 1213.23 761.624C1213.6 762.714 1213.69 763.875 1213.5 765.008C1213.37 766.1 1213.01 767.152 1212.43 768.089C1211.86 769.026 1211.09 769.825 1210.17 770.43C1196.4 779.035 1180.57 783.784 1164.34 784.179L1164.48 784.148ZM1164.48 622.477C1134.79 622.634 1108.23 640.493 1097.09 667.79C1085.95 695.086 1092.01 726.508 1112.82 747.477C1123.18 757.889 1136.43 764.932 1150.85 767.684C1165.28 770.436 1180.19 768.768 1193.65 762.898L1144.48 713.727C1143.7 713.102 1143.07 712.309 1142.63 711.407C1142.2 710.505 1141.97 709.517 1141.97 708.516C1141.97 707.515 1142.2 706.527 1142.63 705.625C1143.07 704.723 1143.7 703.93 1144.48 703.305L1209.48 637.884C1196.56 627.981 1180.76 622.566 1164.48 622.462V622.477Z" fill="#FF6C37"/>
<path d="M1221.98 638.742L1150.73 709.569L1207.4 766.241C1213.1 762.966 1218.41 759.05 1223.23 754.569C1238.08 738.87 1246.25 718.014 1246.02 696.403C1245.79 674.792 1237.17 654.117 1221.98 638.742V638.742Z" fill="white"/>
<path d="M1206.13 772.492C1205.2 772.543 1204.26 772.382 1203.4 772.023C1202.53 771.663 1201.76 771.113 1201.13 770.414L1144.46 713.742C1143.68 713.117 1143.05 712.324 1142.62 711.422C1142.18 710.52 1141.96 709.532 1141.96 708.531C1141.96 707.531 1142.18 706.543 1142.62 705.641C1143.05 704.738 1143.68 703.946 1144.46 703.321L1215.29 633.743C1215.97 632.712 1216.9 631.865 1217.99 631.28C1219.08 630.695 1220.3 630.389 1221.54 630.389C1222.78 630.389 1224 630.695 1225.09 631.28C1226.18 631.865 1227.11 632.712 1227.79 633.743C1236.11 641.89 1242.71 651.614 1247.22 662.346C1251.73 673.078 1254.05 684.602 1254.05 696.242C1254.05 707.883 1251.73 719.407 1247.22 730.139C1242.71 740.871 1236.11 750.595 1227.79 758.742C1222.89 763.944 1217.27 768.431 1211.12 772.07C1209.57 772.851 1207.78 773.002 1206.12 772.492H1206.13ZM1160.31 708.336L1207.38 755.414C1210.62 753.144 1213.69 750.637 1216.56 747.914C1230.4 734.112 1238.19 715.381 1238.23 695.836C1238.26 678.345 1231.88 661.447 1220.31 648.337L1160.31 708.336Z" fill="#FF6C37"/>
<path d="M1117.39 763.335C1111.74 758.036 1104.29 755.086 1096.55 755.086C1088.81 755.086 1081.36 758.036 1075.71 763.335L886.981 951.647L918.231 983.319L1117.81 808.32C1120.85 805.403 1123.27 801.893 1124.9 798.008C1126.54 794.123 1127.36 789.944 1127.32 785.729C1127.28 781.513 1126.38 777.35 1124.67 773.496C1122.96 769.643 1120.48 766.179 1117.39 763.32V763.335Z" fill="white"/>
<path d="M916.56 990.833C914.692 990.787 912.909 990.046 911.56 988.755L879.888 957.084C878.537 955.685 877.782 953.817 877.782 951.873C877.782 949.928 878.537 948.06 879.888 946.662L1068.64 758.742C1074.07 753.312 1081.02 749.64 1088.56 748.204C1096.11 746.767 1103.92 747.631 1110.97 750.684C1118.02 753.738 1123.99 758.839 1128.11 765.327C1132.23 771.814 1134.3 779.389 1134.06 787.07C1133.84 792.282 1132.59 797.4 1130.37 802.122C1128.15 806.844 1125.01 811.075 1121.14 814.569L921.56 989.568C920.108 990.595 918.324 991.041 916.56 990.818V990.833ZM894.482 951.646L915.31 972.896L1111.14 802.476C1115.98 798.257 1118.87 792.226 1119.06 785.804C1119.25 779.382 1116.71 773.101 1111.98 768.726C1107.61 764.372 1101.69 761.928 1095.52 761.928C1089.35 761.928 1083.43 764.372 1079.06 768.726L894.482 951.646Z" fill="#FF6C37"/>
<path d="M740.733 1166.24C740.2 1166.96 739.912 1167.84 739.912 1168.74C739.912 1169.64 740.2 1170.51 740.733 1171.24L749.061 1207.49C749.394 1209.62 749.078 1211.8 748.153 1213.75C747.228 1215.71 745.736 1217.33 743.873 1218.42C742.017 1219.51 739.864 1219.98 737.724 1219.76C735.584 1219.55 733.569 1218.66 731.967 1217.22L674.89 1162.22L852.809 982.895H914.481L956.152 1024.57C891.148 1081.4 818.668 1129.07 740.733 1166.24V1166.24Z" fill="white"/>
<path d="M736.983 1227.49C732.265 1227.39 727.608 1225.46 724.483 1222.07L669.906 1167.49C669.124 1166.86 668.493 1166.07 668.059 1165.17C667.626 1164.27 667.4 1163.28 667.4 1162.28C667.4 1161.28 667.626 1160.29 668.059 1159.39C668.493 1158.48 669.124 1157.69 669.906 1157.07L849.06 977.489C850.064 976.423 851.374 975.697 852.81 975.411H914.888C916.505 974.839 918.27 974.839 919.888 975.411L961.559 1017.08C962.352 1017.81 962.955 1018.73 963.317 1019.74C963.679 1020.76 963.789 1021.84 963.638 1022.91C963.667 1023.95 963.456 1024.97 963.023 1025.91C962.589 1026.86 961.944 1027.68 961.138 1028.33L957.809 1031.25C892.543 1085.67 820.738 1131.71 744.061 1168.33L751.983 1202.08C752.595 1204.68 752.619 1207.39 752.052 1210.01C751.485 1212.62 750.341 1215.07 748.705 1217.19C747.068 1219.3 744.98 1221.03 742.593 1222.23C740.205 1223.44 737.579 1224.1 734.905 1224.16L736.983 1227.49ZM686.156 1162.07L735.311 1211.64C735.769 1212.05 736.362 1212.28 736.975 1212.28C737.589 1212.28 738.181 1212.05 738.639 1211.64C738.946 1211.22 739.111 1210.71 739.111 1210.18C739.111 1209.66 738.946 1209.15 738.639 1208.72L730.311 1172.47C729.655 1169.87 729.919 1167.12 731.058 1164.69C732.197 1162.26 734.142 1160.3 736.561 1159.14C811.177 1123.02 881.131 1077.96 944.888 1024.97L910.716 990.802H854.888L686.156 1162.07Z" fill="#FF6C37"/>
<path d="M631.984 1204.99L673.655 1163.31L737.826 1227.49L635.749 1220.41C633.997 1220.27 632.332 1219.58 630.993 1218.44C629.655 1217.3 628.71 1215.77 628.294 1214.06C627.879 1212.35 628.013 1210.56 628.678 1208.93C629.344 1207.3 630.506 1205.93 631.999 1205L631.984 1204.99Z" fill="white"/>
<path d="M739.061 1233.74L637.39 1226.66C631.359 1226.1 626.172 1221.97 624.047 1216.46C621.922 1210.94 623.219 1204.39 627.39 1199.99L669.062 1158.31C670.46 1156.96 672.328 1156.21 674.273 1156.21C676.217 1156.21 678.085 1156.96 679.484 1158.31L743.233 1222.06C744.115 1223.27 744.591 1224.73 744.591 1226.23C744.591 1227.73 744.115 1229.18 743.233 1230.39C742.269 1231.95 740.795 1233.13 739.061 1233.72V1233.74ZM637.39 1210.41L720.717 1215.83L674.89 1172.91L637.39 1210.41Z" fill="#FF6C37"/>
<path d="M920.308 987.925L836.138 1000.85L884.887 952.52L920.308 987.925Z" fill="white"/>
<path d="M836.138 1008.74C834.739 1008.78 833.36 1008.4 832.174 1007.66C830.987 1006.92 830.046 1005.84 829.466 1004.57C828.579 1003.36 828.101 1001.9 828.101 1000.4C828.101 998.905 828.579 997.446 829.466 996.239L877.793 947.488C879.259 946.111 881.196 945.344 883.207 945.344C885.219 945.344 887.155 946.111 888.621 947.488L924.058 982.895C924.766 984.017 925.141 985.318 925.141 986.645C925.141 987.972 924.766 989.272 924.058 990.395C923.71 991.763 922.976 993.002 921.942 993.964C920.909 994.925 919.62 995.569 918.23 995.817L834.904 1008.74H836.138ZM884.887 963.317L857.809 990.395L904.48 983.317L884.887 963.317Z" fill="#FF6C37"/>
<path d="M920.308 987.897L861.559 995.397C859.987 995.754 858.342 995.594 856.867 994.943C855.393 994.291 854.167 993.181 853.373 991.778C852.579 990.375 852.258 988.754 852.457 987.154C852.657 985.554 853.367 984.061 854.481 982.897L884.903 952.475L920.308 987.897Z" fill="white"/>
<path d="M859.888 1003.33C857.165 1003.31 854.497 1002.56 852.156 1001.17C849.815 999.778 847.884 997.791 846.56 995.411C844.969 992.559 844.352 989.266 844.803 986.031C845.254 982.797 846.749 979.798 849.06 977.49L879.481 947.068C880.948 945.69 882.884 944.923 884.895 944.923C886.907 944.923 888.843 945.69 890.309 947.068L925.731 982.49C926.784 983.488 927.526 984.77 927.865 986.181C928.204 987.592 928.127 989.071 927.642 990.439C927.157 991.806 926.286 993.004 925.135 993.887C923.983 994.77 922.6 995.299 921.153 995.411L862.825 1002.91L859.888 1003.33ZM859.888 987.912L904.059 982.49L884.481 962.912L859.482 987.912H859.888ZM1222.38 686.663C1221.6 685.349 1220.36 684.368 1218.9 683.907C1217.44 683.446 1215.86 683.537 1214.46 684.163C1213.77 684.513 1213.16 684.997 1212.66 685.588C1212.16 686.178 1211.79 686.863 1211.56 687.601C1211.09 689.091 1211.24 690.703 1211.96 692.085C1214.88 698.226 1214.07 705.491 1209.88 710.835C1209.36 711.35 1208.96 711.967 1208.69 712.648C1208.42 713.328 1208.29 714.057 1208.32 714.788C1208.34 716.254 1208.89 717.662 1209.88 718.741C1210.95 719.164 1212.14 719.164 1213.21 718.741C1214.18 718.985 1215.2 718.958 1216.16 718.664C1217.11 718.369 1217.97 717.817 1218.63 717.07C1222.07 712.869 1224.24 707.783 1224.9 702.4C1225.57 697.017 1224.69 691.556 1222.38 686.648V686.663Z" fill="#FF6C37"/>
<defs>
<filter id="filter0_d_301_8885" x="0.171875" y="0.40625" width="1880" height="1880" filterUnits="userSpaceOnUse" color-interpolation-filters="sRGB">
<feFlood flood-opacity="0" result="BackgroundImageFix"/>
<feColorMatrix in="SourceAlpha" type="matrix" values="0 0 0 0 0 0 0 0 0 0 0 0 0 0 0 0 0 0 127 0" result="hardAlpha"/>
<feOffset dy="4"/>
<feGaussianBlur stdDeviation="20"/>
<feComposite in2="hardAlpha" operator="out"/>
<feColorMatrix type="matrix" values="0 0 0 0 0.0367917 0 0 0 0 0.0348958 0 0 0 0 0.0484375 0 0 0 0.1 0"/>
<feBlend mode="normal" in2="BackgroundImageFix" result="effect1_dropShadow_301_8885"/>
<feBlend mode="normal" in="SourceGraphic" in2="effect1_dropShadow_301_8885" result="shape"/>
</filter>
</defs>
</svg>
