<svg width="1881" height="1881" viewBox="0 0 1881 1881" fill="none" xmlns="http://www.w3.org/2000/svg">
<g filter="url(#filter0_d_301_8808)">
<rect x="40.8955" y="36.4058" width="1800" height="1800" rx="320" fill="#1D1F23"/>
<rect x="41.3955" y="36.9058" width="1799" height="1799" rx="319.5" stroke="black"/>
</g>
<path d="M937.397 438.6C683.535 438.6 699.385 548.69 699.385 548.69L699.667 662.746H941.924V696.989H603.447C603.447 696.989 441 678.566 441 934.711C441 1190.86 582.788 1181.78 582.788 1181.78H667.406V1062.91C667.406 1062.91 662.844 921.128 806.93 921.128H1047.21C1047.21 921.128 1182.2 923.309 1182.2 790.66V571.334C1182.2 571.334 1202.7 438.6 937.397 438.6ZM803.817 515.301C809.542 515.296 815.211 516.419 820.501 518.608C825.791 520.796 830.598 524.006 834.646 528.054C838.693 532.102 841.903 536.908 844.092 542.198C846.28 547.488 847.404 553.158 847.399 558.882C847.404 564.607 846.28 570.277 844.092 575.567C841.903 580.856 838.693 585.663 834.646 589.711C830.598 593.759 825.791 596.969 820.501 599.157C815.211 601.346 809.542 602.469 803.817 602.464C798.092 602.469 792.423 601.346 787.133 599.157C781.843 596.969 777.037 593.759 772.989 589.711C768.941 585.663 765.731 580.856 763.542 575.567C761.354 570.277 760.23 564.607 760.235 558.882C760.23 553.158 761.354 547.488 763.542 542.198C765.731 536.908 768.941 532.102 772.989 528.054C777.037 524.006 781.843 520.796 787.133 518.608C792.423 516.419 798.092 515.296 803.817 515.301V515.301Z" fill="url(#paint0_linear_301_8808)"/>
<path d="M944.607 1433.4C1198.47 1433.4 1182.62 1323.31 1182.62 1323.31L1182.34 1209.26H940.076V1175.01H1278.55C1278.55 1175.01 1441 1193.44 1441 937.285C1441 681.135 1299.21 690.219 1299.21 690.219H1214.59V809.081C1214.59 809.081 1219.16 950.868 1075.07 950.868H834.795C834.795 950.868 699.801 948.687 699.801 1081.34V1300.67C699.801 1300.67 679.302 1433.4 944.603 1433.4H944.607ZM1078.19 1356.71C1072.46 1356.71 1066.79 1355.59 1061.5 1353.4C1056.21 1351.21 1051.41 1348 1047.36 1343.95C1043.31 1339.91 1040.1 1335.1 1037.91 1329.81C1035.72 1324.52 1034.6 1318.85 1034.6 1313.13C1034.6 1307.4 1035.72 1301.73 1037.91 1296.44C1040.1 1291.15 1043.31 1286.34 1047.36 1282.29C1051.4 1278.25 1056.21 1275.04 1061.5 1272.85C1066.79 1270.66 1072.46 1269.53 1078.19 1269.54C1083.91 1269.53 1089.58 1270.66 1094.87 1272.85C1100.16 1275.04 1104.97 1278.25 1109.02 1282.29C1113.06 1286.34 1116.27 1291.15 1118.46 1296.44C1120.65 1301.73 1121.77 1307.4 1121.77 1313.12C1121.77 1318.85 1120.65 1324.52 1118.46 1329.81C1116.27 1335.1 1113.06 1339.9 1109.02 1343.95C1104.97 1348 1100.16 1351.21 1094.87 1353.4C1089.58 1355.58 1083.91 1356.71 1078.19 1356.7V1356.71Z" fill="url(#paint1_linear_301_8808)"/>
<defs>
<filter id="filter0_d_301_8808" x="0.895508" y="0.405762" width="1880" height="1880" filterUnits="userSpaceOnUse" color-interpolation-filters="sRGB">
<feFlood flood-opacity="0" result="BackgroundImageFix"/>
<feColorMatrix in="SourceAlpha" type="matrix" values="0 0 0 0 0 0 0 0 0 0 0 0 0 0 0 0 0 0 127 0" result="hardAlpha"/>
<feOffset dy="4"/>
<feGaussianBlur stdDeviation="20"/>
<feComposite in2="hardAlpha" operator="out"/>
<feColorMatrix type="matrix" values="0 0 0 0 0.0367917 0 0 0 0 0.0348958 0 0 0 0 0.0484375 0 0 0 0.1 0"/>
<feBlend mode="normal" in2="BackgroundImageFix" result="effect1_dropShadow_301_8808"/>
<feBlend mode="normal" in="SourceGraphic" in2="effect1_dropShadow_301_8808" result="shape"/>
</filter>
<linearGradient id="paint0_linear_301_8808" x1="537.1" y1="528.076" x2="1032.67" y2="1018.7" gradientUnits="userSpaceOnUse">
<stop stop-color="#387EB8"/>
<stop offset="1" stop-color="#366994"/>
</linearGradient>
<linearGradient id="paint1_linear_301_8808" x1="841.28" y1="843.127" x2="1373.47" y2="1346.22" gradientUnits="userSpaceOnUse">
<stop stop-color="#FFE052"/>
<stop offset="1" stop-color="#FFC331"/>
</linearGradient>
</defs>
</svg>
