<svg width="1881" height="1881" viewBox="0 0 1881 1881" fill="none" xmlns="http://www.w3.org/2000/svg">
<g filter="url(#filter0_d_301_8928)">
<rect x="40.6191" y="36.4062" width="1800" height="1800" rx="320" fill="#1D1F23"/>
<rect x="41.1191" y="36.9062" width="1799" height="1799" rx="319.5" stroke="black"/>
</g>
<path d="M941 1024.16C989.691 1024.16 1029.16 984.691 1029.16 936C1029.16 887.31 989.691 847.838 941 847.838C892.31 847.838 852.838 887.31 852.838 936C852.838 984.691 892.31 1024.16 941 1024.16Z" fill="#61DAFB"/>
<path d="M941 1116.63C1202.27 1116.63 1414.07 1035.76 1414.07 936C1414.07 836.244 1202.27 755.375 941 755.375C679.733 755.375 467.934 836.244 467.934 936C467.934 1035.76 679.733 1116.63 941 1116.63Z" stroke="#61DAFB" stroke-width="50"/>
<path d="M784.574 1026.31C915.207 1252.58 1091.14 1395.57 1177.53 1345.69C1263.92 1295.81 1228.06 1071.95 1097.43 845.687C966.792 619.423 790.858 476.434 704.467 526.313C618.075 576.191 653.94 800.049 784.574 1026.31Z" stroke="#61DAFB" stroke-width="50"/>
<path d="M784.574 845.687C653.94 1071.95 618.075 1295.81 704.467 1345.69C790.858 1395.57 966.792 1252.58 1097.43 1026.31C1228.06 800.048 1263.92 576.191 1177.53 526.312C1091.14 476.434 915.207 619.423 784.574 845.687Z" stroke="#61DAFB" stroke-width="50"/>
<defs>
<filter id="filter0_d_301_8928" x="0.619141" y="0.40625" width="1880" height="1880" filterUnits="userSpaceOnUse" color-interpolation-filters="sRGB">
<feFlood flood-opacity="0" result="BackgroundImageFix"/>
<feColorMatrix in="SourceAlpha" type="matrix" values="0 0 0 0 0 0 0 0 0 0 0 0 0 0 0 0 0 0 127 0" result="hardAlpha"/>
<feOffset dy="4"/>
<feGaussianBlur stdDeviation="20"/>
<feComposite in2="hardAlpha" operator="out"/>
<feColorMatrix type="matrix" values="0 0 0 0 0.0367917 0 0 0 0 0.0348958 0 0 0 0 0.0484375 0 0 0 0.1 0"/>
<feBlend mode="normal" in2="BackgroundImageFix" result="effect1_dropShadow_301_8928"/>
<feBlend mode="normal" in="SourceGraphic" in2="effect1_dropShadow_301_8928" result="shape"/>
</filter>
</defs>
</svg>
