<svg width="1881" height="1881" viewBox="0 0 1881 1881" fill="none" xmlns="http://www.w3.org/2000/svg">
<g filter="url(#filter0_d_301_8847)">
<rect x="40.1719" y="36.4062" width="1800" height="1800" rx="320" fill="#1D1F23"/>
<rect x="40.6719" y="36.9062" width="1799" height="1799" rx="319.5" stroke="black"/>
</g>
<path d="M1433.17 923.736L1391.19 897.748C1390.83 893.668 1390.43 889.592 1389.99 885.521L1426.07 851.869C1427.87 850.193 1429.22 848.082 1429.97 845.738C1430.73 843.395 1430.87 840.896 1430.39 838.482C1429.91 836.066 1428.83 833.812 1427.23 831.936C1425.64 830.059 1423.59 828.623 1421.29 827.763L1375.16 810.517C1374.01 806.535 1372.8 802.566 1371.55 798.611L1400.32 758.654C1401.76 756.657 1402.67 754.324 1402.95 751.877C1403.24 749.431 1402.89 746.952 1401.95 744.677C1401.01 742.401 1399.5 740.404 1397.57 738.875C1395.64 737.347 1393.35 736.337 1390.92 735.943L1342.29 728.033C1340.39 724.345 1338.43 720.713 1336.44 717.111L1356.87 672.256C1357.9 670.017 1358.34 667.552 1358.14 665.097C1357.95 662.641 1357.12 660.278 1355.75 658.232C1354.39 656.18 1352.52 654.512 1350.33 653.389C1348.14 652.266 1345.7 651.725 1343.23 651.818L1293.87 653.537C1291.33 650.344 1288.73 647.191 1286.08 644.08L1297.42 596.002C1297.99 593.604 1297.93 591.101 1297.26 588.731C1296.58 586.361 1295.31 584.203 1293.57 582.463C1291.83 580.721 1289.67 579.452 1287.31 578.778C1284.94 578.104 1282.44 578.046 1280.04 578.611L1231.97 589.943C1228.85 587.297 1225.69 584.698 1222.5 582.146L1224.22 532.791C1224.32 530.33 1223.77 527.887 1222.65 525.695C1221.53 523.503 1219.87 521.636 1217.82 520.271C1215.77 518.901 1213.41 518.078 1210.95 517.879C1208.5 517.681 1206.03 518.114 1203.79 519.138L1158.95 539.584C1155.33 537.587 1151.69 535.634 1148.03 533.724L1140.1 485.084C1139.7 482.655 1138.69 480.368 1137.16 478.439C1135.63 476.51 1133.64 475.003 1131.36 474.061C1129.09 473.12 1126.61 472.774 1124.17 473.058C1121.72 473.341 1119.39 474.244 1117.39 475.681L1077.41 504.451C1073.48 503.201 1069.52 501.994 1065.53 500.849L1048.28 454.72C1047.42 452.409 1045.99 450.357 1044.11 448.759C1042.23 447.162 1039.98 446.072 1037.56 445.595C1035.15 445.12 1032.65 445.268 1030.31 446.024C1027.97 446.78 1025.86 448.119 1024.18 449.916L990.531 486.021C986.462 485.565 982.386 485.167 978.305 484.826L952.316 442.834C951.021 440.741 949.213 439.014 947.064 437.817C944.914 436.619 942.494 435.99 940.033 435.99C937.572 435.99 935.152 436.619 933.003 437.817C930.853 439.014 929.045 440.741 927.75 442.834L901.762 484.826C897.677 485.166 893.597 485.565 889.523 486.021L855.863 449.916C854.186 448.112 852.075 446.768 849.731 446.012C847.387 445.255 844.889 445.11 842.473 445.592C840.058 446.073 837.806 447.165 835.932 448.763C834.058 450.361 832.623 452.412 831.766 454.72L814.523 500.849C810.527 501.994 806.574 503.209 802.629 504.451L762.652 475.681C760.655 474.238 758.321 473.331 755.874 473.047C753.426 472.763 750.946 473.112 748.672 474.06C746.4 475.004 744.405 476.511 742.878 478.44C741.35 480.369 740.34 482.656 739.941 485.084L732.012 533.724C728.34 535.627 724.711 537.584 721.09 539.584L676.242 519.134C674.004 518.11 671.54 517.676 669.086 517.875C666.632 518.074 664.271 518.899 662.227 520.271C660.175 521.635 658.509 523.502 657.386 525.694C656.263 527.886 655.721 530.329 655.812 532.791L657.531 582.146C654.338 584.703 651.179 587.302 648.055 589.943L599.988 578.615C597.591 578.053 595.089 578.111 592.72 578.785C590.351 579.458 588.193 580.724 586.449 582.463C584.705 584.203 583.435 586.361 582.761 588.731C582.086 591.101 582.03 593.604 582.598 596.002L593.922 644.08C591.293 647.193 588.695 650.345 586.145 653.537L536.785 651.818C534.327 651.74 531.889 652.288 529.701 653.409C527.512 654.53 525.643 656.188 524.27 658.228C522.9 660.275 522.076 662.638 521.877 665.092C521.678 667.547 522.111 670.011 523.133 672.252L543.578 717.111C541.59 720.713 539.625 724.345 537.719 728.033L489.09 735.943C486.66 736.339 484.371 737.35 482.441 738.879C480.511 740.408 479.004 742.404 478.062 744.679C477.12 746.954 476.775 749.432 477.06 751.878C477.344 754.323 478.249 756.656 479.688 758.654L508.457 798.615C507.207 802.56 505.992 806.521 504.844 810.517L458.719 827.763C456.415 828.629 454.371 830.068 452.778 831.944C451.186 833.82 450.099 836.071 449.62 838.485C449.141 840.899 449.286 843.394 450.041 845.736C450.795 848.079 452.135 850.189 453.934 851.869L490.016 885.517C489.566 889.58 489.168 893.67 488.824 897.748L446.836 923.736C444.744 925.031 443.018 926.84 441.821 928.99C440.625 931.14 439.998 933.561 440 936.021C440 941.037 442.59 945.681 446.84 948.299L488.824 974.287C489.168 978.377 489.566 982.459 490.016 986.517L453.93 1020.18C452.128 1021.86 450.785 1023.97 450.029 1026.31C449.272 1028.65 449.127 1031.15 449.607 1033.56C450.087 1035.98 451.176 1038.23 452.77 1040.1C454.365 1041.98 456.413 1043.41 458.719 1044.28L504.844 1061.52C505.992 1065.51 507.207 1069.48 508.457 1073.42L479.688 1113.39C478.246 1115.39 477.339 1117.72 477.054 1120.17C476.769 1122.61 477.115 1125.09 478.058 1127.37C479.002 1129.64 480.512 1131.64 482.445 1133.17C484.378 1134.69 486.669 1135.7 489.102 1136.09L537.723 1144C539.625 1147.69 541.574 1151.32 543.582 1154.94L523.133 1199.78C522.109 1202.02 521.676 1204.49 521.875 1206.94C522.074 1209.4 522.898 1211.76 524.27 1213.81C525.633 1215.86 527.5 1217.52 529.691 1218.64C531.882 1219.77 534.325 1220.31 536.785 1220.22L586.121 1218.49C588.695 1221.7 591.285 1224.84 593.922 1227.97L582.598 1276.05C582.031 1278.45 582.087 1280.95 582.761 1283.31C583.436 1285.68 584.705 1287.83 586.449 1289.56C588.188 1291.31 590.346 1292.58 592.717 1293.25C595.088 1293.93 597.592 1293.98 599.988 1293.4L648.055 1282.08C651.18 1284.74 654.344 1287.32 657.535 1289.86L655.816 1339.23C655.728 1341.69 656.27 1344.13 657.391 1346.32C658.513 1348.51 660.176 1350.38 662.223 1351.75C664.27 1353.12 666.633 1353.94 669.087 1354.13C671.541 1354.33 674.004 1353.89 676.242 1352.87L721.09 1332.44C724.701 1334.44 728.342 1336.39 732.012 1338.29L739.941 1386.9C740.333 1389.34 741.341 1391.63 742.869 1393.56C744.398 1395.49 746.395 1397 748.672 1397.94C750.947 1398.88 753.425 1399.23 755.871 1398.95C758.318 1398.66 760.652 1397.76 762.652 1396.33L802.609 1367.54C806.555 1368.79 810.519 1370.01 814.512 1371.16L831.758 1417.27C832.616 1419.58 834.053 1421.62 835.929 1423.22C837.806 1424.81 840.06 1425.9 842.477 1426.37C844.89 1426.86 847.388 1426.72 849.731 1425.96C852.074 1425.21 854.183 1423.86 855.855 1422.05L889.516 1385.97C893.578 1386.44 897.664 1386.83 901.754 1387.19L927.742 1429.17C929.039 1431.26 930.846 1432.99 932.995 1434.18C935.143 1435.38 937.561 1436.01 940.019 1436.01C942.48 1436.01 944.899 1435.38 947.048 1434.18C949.198 1432.99 951.007 1431.26 952.305 1429.17L978.293 1387.19C982.383 1386.83 986.465 1386.44 990.523 1385.97L1024.18 1422.05C1025.85 1423.86 1027.96 1425.2 1030.3 1425.96C1032.64 1426.72 1035.14 1426.86 1037.55 1426.37C1039.97 1425.9 1042.22 1424.81 1044.1 1423.22C1045.97 1421.62 1047.41 1419.57 1048.27 1417.27L1065.52 1371.16C1069.51 1370.01 1073.48 1368.79 1077.42 1367.54L1117.39 1396.33C1119.39 1397.76 1121.72 1398.67 1124.17 1398.95C1126.61 1399.23 1129.09 1398.88 1131.36 1397.94C1133.64 1397 1135.63 1395.49 1137.16 1393.56C1138.69 1391.62 1139.7 1389.33 1140.09 1386.9L1148.02 1338.29C1151.69 1336.39 1155.32 1334.41 1158.94 1332.43L1203.79 1352.87C1206.02 1353.9 1208.49 1354.33 1210.94 1354.14C1213.4 1353.94 1215.76 1353.12 1217.81 1351.76C1219.86 1350.39 1221.52 1348.52 1222.64 1346.33C1223.77 1344.13 1224.31 1341.69 1224.21 1339.23L1222.5 1289.86C1225.69 1287.32 1228.85 1284.73 1231.96 1282.08L1280.03 1293.4C1284.91 1294.55 1290.03 1293.13 1293.56 1289.56C1295.3 1287.83 1296.57 1285.68 1297.25 1283.31C1297.92 1280.95 1297.98 1278.45 1297.41 1276.05L1286.09 1227.97C1288.73 1224.84 1291.32 1221.7 1293.86 1218.49L1343.22 1220.22C1345.68 1220.31 1348.13 1219.77 1350.32 1218.65C1352.51 1217.53 1354.37 1215.86 1355.74 1213.81C1357.11 1211.76 1357.94 1209.4 1358.13 1206.94C1358.33 1204.49 1357.9 1202.02 1356.87 1199.78L1336.43 1154.94C1338.43 1151.32 1340.39 1147.69 1342.28 1144.01L1390.91 1136.09C1393.34 1135.7 1395.63 1134.69 1397.56 1133.16C1399.49 1131.63 1401 1129.64 1401.93 1127.36C1402.88 1125.08 1403.22 1122.61 1402.94 1120.16C1402.65 1117.72 1401.75 1115.39 1400.31 1113.39L1371.54 1073.43C1372.79 1069.48 1374 1065.51 1375.16 1061.52L1421.27 1044.28C1423.58 1043.42 1425.63 1041.98 1427.23 1040.1C1428.82 1038.22 1429.91 1035.97 1430.38 1033.55C1430.86 1031.14 1430.72 1028.64 1429.97 1026.3C1429.21 1023.96 1427.86 1021.85 1426.06 1020.18L1389.98 986.517C1390.42 982.455 1390.82 978.369 1391.18 974.291L1433.16 948.299C1435.25 947.006 1436.98 945.199 1438.18 943.05C1439.37 940.901 1440 938.481 1440 936.021C1440 931.017 1437.42 926.365 1433.17 923.736V923.736ZM1152.18 1272C1136.15 1268.54 1125.96 1252.74 1129.4 1236.66C1132.83 1220.6 1148.62 1210.38 1164.64 1213.83C1180.68 1217.27 1190.89 1233.1 1187.45 1249.15C1184.01 1265.2 1168.21 1275.44 1152.18 1272ZM1137.92 1175.52C1134.44 1174.78 1130.85 1174.72 1127.35 1175.37C1123.85 1176.01 1120.51 1177.34 1117.53 1179.27C1114.54 1181.2 1111.96 1183.71 1109.95 1186.64C1107.93 1189.57 1106.51 1192.87 1105.77 1196.35L1090.86 1265.91C1044.87 1286.78 993.793 1298.38 940 1298.38C884.977 1298.38 832.789 1286.21 785.977 1264.44L771.078 1194.89C767.945 1180.25 753.555 1170.93 738.937 1174.07L677.531 1187.26C666.119 1175.51 655.511 1163.01 645.781 1149.83H944.57C947.949 1149.83 950.203 1149.22 950.203 1146.14V1040.45C950.203 1037.38 947.949 1036.76 944.566 1036.76H857.187V969.771H951.699C960.324 969.771 997.828 972.232 1009.82 1020.17C1013.57 1034.91 1021.82 1082.87 1027.46 1098.22C1033.07 1115.44 1055.95 1149.83 1080.32 1149.83H1229.21C1230.9 1149.83 1232.7 1149.64 1234.61 1149.29C1224.28 1163.32 1212.96 1176.6 1200.74 1189.02L1137.92 1175.52H1137.92ZM724.676 1270.55C708.641 1274.01 692.855 1263.79 689.406 1247.72C685.977 1231.63 696.172 1215.84 712.203 1212.38C728.238 1208.95 744.031 1219.18 747.469 1235.24C750.898 1251.29 740.695 1267.11 724.672 1270.55H724.676ZM611.328 810.939C617.98 825.947 611.211 843.537 596.223 850.177C581.234 856.838 563.691 850.06 557.043 835.041C550.391 820.021 557.156 802.463 572.148 795.802C575.714 794.221 579.557 793.358 583.457 793.263C587.356 793.167 591.236 793.842 594.875 795.247C598.514 796.653 601.84 798.761 604.663 801.453C607.486 804.145 609.751 807.367 611.328 810.935V810.939ZM576.492 893.517L640.461 865.092C647.028 862.17 652.166 856.762 654.747 850.054C657.329 843.346 657.141 835.888 654.227 829.318L641.055 799.529H692.867V1033.08H588.332C579.066 1000.46 574.378 966.706 574.402 932.795C574.402 919.521 575.117 906.404 576.492 893.513V893.517ZM857.203 870.834V801.994H980.586C986.961 801.994 1025.59 809.361 1025.59 838.244C1025.59 862.224 995.961 870.822 971.598 870.822H857.203V870.834ZM1305.61 932.795C1305.61 941.927 1305.27 950.967 1304.61 959.935H1267.09C1263.34 959.935 1261.83 962.404 1261.83 966.08V983.306C1261.83 1023.85 1238.96 1032.67 1218.93 1034.92C1199.85 1037.07 1178.7 1026.93 1176.09 1015.26C1164.83 951.951 1146.08 938.431 1116.46 915.068C1153.22 891.728 1191.46 857.295 1191.46 811.201C1191.46 761.435 1157.34 730.088 1134.09 714.716C1101.46 693.209 1065.34 688.896 1055.59 688.896H667.652C720.258 630.185 791.555 588.595 872.191 573.463L917.918 621.431C920.371 624.006 923.308 626.072 926.561 627.51C929.814 628.948 933.318 629.731 936.873 629.813C940.429 629.895 943.966 629.275 947.281 627.988C950.597 626.701 953.626 624.773 956.195 622.314L1007.36 573.377C1114.57 593.338 1205.34 660.072 1257.64 751.631L1222.62 830.744C1216.57 844.435 1222.74 860.447 1236.39 866.513L1303.83 896.467C1305 908.439 1305.61 920.533 1305.61 932.795ZM917.937 532.654C929.785 521.306 948.578 521.755 959.922 533.619C971.242 545.517 970.812 564.33 958.937 575.67C947.09 587.021 928.297 586.58 916.953 574.693C911.518 568.983 908.569 561.351 908.753 553.47C908.938 545.589 912.241 538.103 917.937 532.654V532.654ZM1265.53 812.381C1267.1 808.813 1269.37 805.591 1272.19 802.9C1275.01 800.208 1278.34 798.099 1281.98 796.695C1285.61 795.29 1289.49 794.616 1293.39 794.712C1297.29 794.809 1301.13 795.673 1304.7 797.256C1319.69 803.904 1326.46 821.486 1319.8 836.494C1318.23 840.063 1315.97 843.287 1313.14 845.98C1310.32 848.673 1306.99 850.783 1303.35 852.189C1299.72 853.595 1295.83 854.269 1291.93 854.174C1288.03 854.078 1284.19 853.214 1280.62 851.631C1265.65 844.978 1258.89 827.412 1265.53 812.381V812.381Z" fill="white"/>
<defs>
<filter id="filter0_d_301_8847" x="0.171875" y="0.40625" width="1880" height="1880" filterUnits="userSpaceOnUse" color-interpolation-filters="sRGB">
<feFlood flood-opacity="0" result="BackgroundImageFix"/>
<feColorMatrix in="SourceAlpha" type="matrix" values="0 0 0 0 0 0 0 0 0 0 0 0 0 0 0 0 0 0 127 0" result="hardAlpha"/>
<feOffset dy="4"/>
<feGaussianBlur stdDeviation="20"/>
<feComposite in2="hardAlpha" operator="out"/>
<feColorMatrix type="matrix" values="0 0 0 0 0.0367917 0 0 0 0 0.0348958 0 0 0 0 0.0484375 0 0 0 0.1 0"/>
<feBlend mode="normal" in2="BackgroundImageFix" result="effect1_dropShadow_301_8847"/>
<feBlend mode="normal" in="SourceGraphic" in2="effect1_dropShadow_301_8847" result="shape"/>
</filter>
</defs>
</svg>
