<svg width="1881" height="1881" viewBox="0 0 1881 1881" fill="none" xmlns="http://www.w3.org/2000/svg">
<g filter="url(#filter0_d_301_8924)">
<rect x="40.1953" y="36.0293" width="1800" height="1800" rx="320" fill="#1D1F23"/>
<rect x="40.6953" y="36.5293" width="1799" height="1799" rx="319.5" stroke="black"/>
</g>
<path d="M1305.08 995.142C1270.19 995.324 1239.87 1003.73 1214.48 1016.15C1205.17 997.699 1195.85 981.26 1194.21 969.205C1192.38 955.14 1190.19 946.556 1192.38 929.752C1194.57 912.947 1204.44 889.02 1204.25 887.193C1204.07 885.367 1202.06 876.782 1181.97 876.599C1161.88 876.417 1144.53 880.435 1142.52 885.732C1140.51 891.029 1136.67 903.084 1134.11 915.505C1130.64 933.77 1093.93 998.977 1072.93 1033.13C1066.17 1019.8 1060.32 1008.11 1059.04 998.795C1057.22 984.73 1055.03 976.146 1057.22 959.341C1059.41 942.537 1069.27 918.61 1069.09 916.783C1068.91 914.957 1066.9 906.372 1046.81 906.189C1026.71 906.007 1009.36 910.025 1007.35 915.322C1005.34 920.619 1003.15 933.039 998.95 945.094C994.749 957.15 945.981 1066.01 933.195 1094.14C926.619 1108.57 920.957 1120.08 916.939 1127.93C916.939 1127.93 916.756 1128.48 916.208 1129.39C912.738 1136.15 910.729 1139.8 910.729 1139.8C910.729 1139.8 910.729 1139.8 910.729 1139.99C907.989 1144.92 905.066 1149.48 903.605 1149.48C902.509 1149.48 900.5 1136.33 903.97 1118.43C911.277 1080.62 928.629 1021.81 928.446 1019.8C928.446 1018.7 931.734 1008.48 917.121 1003.18C902.874 997.881 897.76 1006.65 896.482 1006.65C895.203 1006.65 894.29 1009.75 894.29 1009.75C894.29 1009.75 910.181 943.633 863.969 943.633C835.11 943.633 795.291 975.232 775.565 1003.73C763.144 1010.48 736.659 1024.91 708.348 1040.44C697.571 1046.47 686.43 1052.49 676.018 1058.16C675.288 1057.43 674.557 1056.51 673.826 1055.78C617.934 996.055 514.552 953.862 518.936 873.677C520.58 844.452 530.626 767.738 717.481 674.584C871.275 598.783 993.653 619.788 1014.84 666.365C1045.16 732.851 949.269 856.325 790.36 874.225C729.719 880.983 697.937 857.603 689.9 848.836C681.498 839.703 680.219 839.155 677.114 840.982C672 843.722 675.288 851.941 677.114 856.69C681.863 869.11 701.407 891.029 734.468 901.805C763.692 911.303 834.745 916.6 920.774 883.357C1017.03 846.096 1092.29 742.531 1070.19 655.771C1048.08 567.732 901.961 538.69 763.692 587.823C681.498 617.048 592.363 663.077 528.251 722.987C452.085 794.222 440.03 856.142 444.961 882.079C462.679 974.136 589.623 1034.05 640.401 1078.43C637.844 1079.89 635.469 1081.17 633.46 1082.27C608.071 1094.87 511.265 1145.47 487.154 1198.98C459.756 1259.62 491.538 1303.1 512.543 1308.94C577.751 1327.02 644.784 1294.51 680.767 1240.81C716.75 1187.11 712.366 1117.34 695.745 1085.37C695.562 1085.01 695.38 1084.64 695.014 1084.28C701.59 1080.44 708.348 1076.42 714.924 1072.59C727.892 1064.92 740.678 1057.79 751.637 1051.95C745.427 1068.93 740.86 1089.21 738.669 1118.43C735.929 1152.77 749.993 1197.34 768.441 1214.87C776.661 1222.55 786.341 1222.73 792.551 1222.73C814.105 1222.73 823.785 1204.83 834.562 1183.64C847.713 1157.7 859.585 1127.57 859.585 1127.57C859.585 1127.57 844.79 1209.03 884.974 1209.03C899.587 1209.03 914.382 1190.03 920.957 1180.35C920.957 1180.54 920.957 1180.54 920.957 1180.54C920.957 1180.54 921.322 1179.99 922.053 1178.71C923.514 1176.33 924.428 1174.87 924.428 1174.87C924.428 1174.87 924.428 1174.69 924.428 1174.51C930.273 1164.28 943.424 1141.08 962.968 1102.54C988.174 1052.86 1012.47 990.758 1012.47 990.758C1012.47 990.758 1014.66 1005.92 1022.15 1031.12C1026.53 1045.92 1035.66 1062.18 1042.97 1077.88C1037.12 1086.1 1033.47 1090.67 1033.47 1090.67C1033.47 1090.67 1033.47 1090.67 1033.65 1090.85C1028.91 1097.06 1023.79 1103.82 1018.13 1110.4C998.22 1134.14 974.475 1161.36 971.187 1169.21C967.351 1178.53 968.265 1185.28 975.571 1190.76C980.868 1194.78 990.366 1195.33 1000.05 1194.78C1017.95 1193.5 1030.55 1189.12 1036.76 1186.38C1046.44 1182.91 1057.76 1177.61 1068.36 1169.76C1087.9 1155.33 1099.78 1134.69 1098.68 1107.47C1098.13 1092.5 1093.2 1077.52 1087.17 1063.45C1089 1060.9 1090.64 1058.34 1092.47 1055.78C1123.34 1010.67 1147.27 961.168 1147.27 961.168C1147.27 961.168 1149.46 976.328 1156.95 1001.53C1160.6 1014.32 1168.09 1028.2 1174.66 1041.72C1145.62 1065.28 1127.72 1092.68 1121.33 1110.58C1109.82 1143.82 1118.77 1158.8 1135.76 1162.27C1143.43 1163.91 1154.39 1160.26 1162.43 1156.79C1172.65 1153.5 1184.71 1147.84 1196.22 1139.44C1215.76 1125.01 1234.57 1104.92 1233.48 1077.7C1232.93 1065.28 1229.64 1053.04 1225.08 1041.17C1249.73 1030.94 1281.52 1025.28 1322.07 1030.03C1409.01 1040.26 1426.18 1094.51 1422.89 1117.34C1419.6 1140.17 1401.34 1152.59 1395.31 1156.42C1389.28 1160.26 1387.27 1161.54 1387.82 1164.28C1388.55 1168.3 1391.47 1168.11 1396.59 1167.38C1403.71 1166.11 1442.25 1148.94 1443.9 1106.93C1446.64 1053.23 1395.49 994.594 1305.08 995.142ZM634.373 1221.27C605.514 1252.68 565.33 1264.56 547.978 1254.51C529.347 1243.73 536.653 1197.34 572.088 1164.1C593.641 1143.82 621.405 1125.01 639.853 1113.5C644.054 1110.94 650.264 1107.29 657.753 1102.72C659.032 1101.99 659.762 1101.63 659.762 1101.63C661.223 1100.72 662.685 1099.8 664.146 1098.89C677.114 1146.38 664.694 1188.21 634.373 1221.27ZM844.425 1078.43C834.379 1102.91 813.374 1165.56 800.588 1162.09C789.629 1159.16 782.871 1111.67 798.396 1064.73C806.251 1041.17 822.872 1013.04 832.553 1002.08C848.261 984.548 865.613 978.703 869.814 985.826C875.111 995.142 850.635 1063.09 844.425 1078.43ZM1017.76 1161.36C1013.56 1163.55 1009.54 1165.01 1007.72 1163.91C1006.44 1163.18 1009.54 1160.26 1009.54 1160.26C1009.54 1160.26 1031.28 1136.88 1039.86 1126.29C1044.8 1120.08 1050.64 1112.77 1056.85 1104.55C1056.85 1105.28 1056.85 1106.2 1056.85 1106.93C1056.85 1134.87 1029.82 1153.69 1017.76 1161.36ZM1151.47 1130.85C1148.36 1128.66 1148.91 1121.36 1159.32 1098.52C1163.34 1089.57 1172.84 1074.6 1189.09 1060.17C1190.92 1066.01 1192.2 1071.67 1192.02 1076.97C1191.83 1112.22 1166.63 1125.37 1151.47 1130.85Z" fill="#CD6799"/>
<defs>
<filter id="filter0_d_301_8924" x="0.195312" y="0.0292969" width="1880" height="1880" filterUnits="userSpaceOnUse" color-interpolation-filters="sRGB">
<feFlood flood-opacity="0" result="BackgroundImageFix"/>
<feColorMatrix in="SourceAlpha" type="matrix" values="0 0 0 0 0 0 0 0 0 0 0 0 0 0 0 0 0 0 127 0" result="hardAlpha"/>
<feOffset dy="4"/>
<feGaussianBlur stdDeviation="20"/>
<feComposite in2="hardAlpha" operator="out"/>
<feColorMatrix type="matrix" values="0 0 0 0 0.0367917 0 0 0 0 0.0348958 0 0 0 0 0.0484375 0 0 0 0.1 0"/>
<feBlend mode="normal" in2="BackgroundImageFix" result="effect1_dropShadow_301_8924"/>
<feBlend mode="normal" in="SourceGraphic" in2="effect1_dropShadow_301_8924" result="shape"/>
</filter>
</defs>
</svg>
