<svg width="1881" height="1881" viewBox="0 0 1881 1881" fill="none" xmlns="http://www.w3.org/2000/svg">
<g filter="url(#filter0_d_301_8883)">
<rect x="40.0674" y="36.4062" width="1800" height="1800" rx="320" fill="#1D1F23"/>
<rect x="40.5674" y="36.9062" width="1799" height="1799" rx="319.5" stroke="black"/>
</g>
<path d="M468.545 601.746L933.736 436L1411.45 598.799L1334.1 1214.27L933.736 1436L539.632 1217.22L468.545 601.746Z" fill="#E23237"/>
<path d="M1411.45 598.799L933.735 436V1436L1334.1 1214.64L1411.45 598.799V598.799Z" fill="#B52E31"/>
<path d="M934.471 552.761L644.604 1197.7L752.888 1195.85L811.085 1050.36H1071.12L1134.84 1197.7L1238.34 1199.54L934.471 552.761ZM935.211 759.391L1033.18 964.176H849.019L935.211 759.391Z" fill="white"/>
<defs>
<filter id="filter0_d_301_8883" x="0.0673828" y="0.40625" width="1880" height="1880" filterUnits="userSpaceOnUse" color-interpolation-filters="sRGB">
<feFlood flood-opacity="0" result="BackgroundImageFix"/>
<feColorMatrix in="SourceAlpha" type="matrix" values="0 0 0 0 0 0 0 0 0 0 0 0 0 0 0 0 0 0 127 0" result="hardAlpha"/>
<feOffset dy="4"/>
<feGaussianBlur stdDeviation="20"/>
<feComposite in2="hardAlpha" operator="out"/>
<feColorMatrix type="matrix" values="0 0 0 0 0.0367917 0 0 0 0 0.0348958 0 0 0 0 0.0484375 0 0 0 0.1 0"/>
<feBlend mode="normal" in2="BackgroundImageFix" result="effect1_dropShadow_301_8883"/>
<feBlend mode="normal" in="SourceGraphic" in2="effect1_dropShadow_301_8883" result="shape"/>
</filter>
</defs>
</svg>
