<svg width="1881" height="1881" viewBox="0 0 1881 1881" fill="none" xmlns="http://www.w3.org/2000/svg">
<g filter="url(#filter0_d_301_8851)">
<rect x="40.4482" y="36.4062" width="1800" height="1800" rx="320" fill="#1D1F23"/>
<rect x="40.9482" y="36.9062" width="1799" height="1799" rx="319.5" stroke="black"/>
</g>
<path d="M515.467 862.322C513.52 862.322 513.033 861.348 514.006 859.887L524.231 846.741C525.205 845.281 527.639 844.307 529.587 844.307H703.404C705.352 844.307 705.839 845.767 704.865 847.228L696.588 859.887C695.614 861.348 693.18 862.808 691.719 862.808L515.467 862.322ZM441.948 907.115C440 907.115 439.513 906.141 440.487 904.68L450.711 891.535C451.685 890.074 454.12 889.1 456.067 889.1H678.086C680.034 889.1 681.008 890.561 680.521 892.021L676.626 903.707C676.139 905.654 674.191 906.628 672.244 906.628L441.948 907.115ZM559.774 951.908C557.826 951.908 557.339 950.448 558.313 948.987L565.129 936.815C566.103 935.354 568.051 933.894 569.998 933.894H667.375C669.323 933.894 670.296 935.354 670.296 937.302L669.323 948.987C669.323 950.934 667.375 952.395 665.914 952.395L559.774 951.908ZM1065.16 853.558C1034.49 861.348 1013.55 867.19 983.363 874.981C976.06 876.928 975.573 877.415 969.243 870.112C961.94 861.835 956.584 856.479 946.36 851.61C915.686 836.517 885.986 840.899 858.234 858.913C825.126 880.336 808.085 911.984 808.571 951.421C809.058 990.372 835.837 1022.51 874.301 1027.86C907.409 1032.24 935.161 1020.56 957.071 995.728C961.453 990.372 965.348 984.529 970.217 977.713H876.248C866.024 977.713 863.589 971.384 866.998 963.107C873.327 948.013 885.012 922.695 891.829 910.036C893.289 907.115 896.698 902.246 904.001 902.246H1081.23C1080.25 915.392 1080.25 928.538 1078.31 941.684C1072.95 976.739 1059.8 1008.87 1038.38 1037.11C1003.33 1083.37 957.558 1112.09 899.619 1119.88C851.904 1126.21 807.598 1116.96 768.647 1087.75C732.617 1060.48 712.168 1024.45 706.813 979.661C700.483 926.59 716.063 878.876 748.198 837.004C782.767 791.723 828.534 762.997 884.525 752.773C930.293 744.496 974.112 749.851 1013.55 776.63C1039.35 793.671 1057.86 817.041 1070.03 845.281C1072.95 849.663 1071 852.097 1065.16 853.558Z" fill="#00ACD7"/>
<path d="M1226.32 1122.8C1182.01 1121.83 1141.6 1109.17 1107.52 1079.96C1078.79 1055.13 1060.78 1023.48 1054.93 985.989C1046.17 930.972 1061.26 882.283 1094.37 838.95C1129.91 792.21 1172.76 767.865 1230.7 757.641C1280.36 748.877 1327.1 753.746 1369.46 782.472C1407.93 808.764 1431.78 844.306 1438.11 891.047C1446.39 956.776 1427.4 1010.33 1382.12 1056.1C1349.99 1088.72 1310.55 1109.17 1265.27 1118.42C1252.12 1120.86 1238.98 1121.34 1226.32 1122.8V1122.8ZM1342.2 926.103C1341.71 919.773 1341.71 914.904 1340.74 910.036C1331.97 861.834 1287.66 834.568 1241.41 845.28C1196.13 855.504 1166.92 884.231 1156.21 929.998C1147.44 967.975 1165.94 1006.44 1201 1022.02C1227.78 1033.7 1254.56 1032.24 1280.36 1019.1C1318.83 999.135 1339.76 967.975 1342.2 926.103V926.103Z" fill="#00ACD7"/>
<defs>
<filter id="filter0_d_301_8851" x="0.448242" y="0.40625" width="1880" height="1880" filterUnits="userSpaceOnUse" color-interpolation-filters="sRGB">
<feFlood flood-opacity="0" result="BackgroundImageFix"/>
<feColorMatrix in="SourceAlpha" type="matrix" values="0 0 0 0 0 0 0 0 0 0 0 0 0 0 0 0 0 0 127 0" result="hardAlpha"/>
<feOffset dy="4"/>
<feGaussianBlur stdDeviation="20"/>
<feComposite in2="hardAlpha" operator="out"/>
<feColorMatrix type="matrix" values="0 0 0 0 0.0367917 0 0 0 0 0.0348958 0 0 0 0 0.0484375 0 0 0 0.1 0"/>
<feBlend mode="normal" in2="BackgroundImageFix" result="effect1_dropShadow_301_8851"/>
<feBlend mode="normal" in="SourceGraphic" in2="effect1_dropShadow_301_8851" result="shape"/>
</filter>
</defs>
</svg>
