<svg width="1881" height="1881" viewBox="0 0 1881 1881" fill="none" xmlns="http://www.w3.org/2000/svg">
<g filter="url(#filter0_d_301_8814)">
<rect x="40.1719" y="36.4058" width="1800" height="1800" rx="320" fill="#1D1F23"/>
<rect x="40.6719" y="36.9058" width="1799" height="1799" rx="319.5" stroke="black"/>
</g>
<path d="M1440 436H440V1436H1440V436Z" fill="#F7DF1E"/>
<path d="M1111.75 1217.25C1131.89 1250.14 1158.1 1274.32 1204.44 1274.32C1243.38 1274.32 1268.25 1254.86 1268.25 1227.97C1268.25 1195.75 1242.7 1184.33 1199.84 1165.59L1176.35 1155.51C1108.54 1126.62 1063.49 1090.43 1063.49 1013.92C1063.49 943.445 1117.19 889.794 1201.11 889.794C1260.86 889.794 1303.81 910.588 1334.76 965.032L1261.59 1012.02C1245.48 983.127 1228.1 971.746 1201.11 971.746C1173.59 971.746 1156.14 989.207 1156.14 1012.02C1156.14 1040.21 1173.6 1051.62 1213.92 1069.08L1237.41 1079.14C1317.25 1113.38 1362.33 1148.29 1362.33 1226.76C1362.33 1311.37 1295.87 1357.71 1206.62 1357.71C1119.35 1357.71 1062.97 1316.13 1035.38 1261.62L1111.75 1217.25ZM779.794 1225.4C794.556 1251.59 807.984 1273.73 840.27 1273.73C871.143 1273.73 890.619 1261.65 890.619 1214.68V895.159H984.587V1215.95C984.587 1313.25 927.54 1357.54 844.27 1357.54C769.032 1357.54 725.46 1318.6 703.302 1271.71L779.794 1225.4Z" fill="black"/>
<defs>
<filter id="filter0_d_301_8814" x="0.171875" y="0.405762" width="1880" height="1880" filterUnits="userSpaceOnUse" color-interpolation-filters="sRGB">
<feFlood flood-opacity="0" result="BackgroundImageFix"/>
<feColorMatrix in="SourceAlpha" type="matrix" values="0 0 0 0 0 0 0 0 0 0 0 0 0 0 0 0 0 0 127 0" result="hardAlpha"/>
<feOffset dy="4"/>
<feGaussianBlur stdDeviation="20"/>
<feComposite in2="hardAlpha" operator="out"/>
<feColorMatrix type="matrix" values="0 0 0 0 0.0367917 0 0 0 0 0.0348958 0 0 0 0 0.0484375 0 0 0 0.1 0"/>
<feBlend mode="normal" in2="BackgroundImageFix" result="effect1_dropShadow_301_8814"/>
<feBlend mode="normal" in="SourceGraphic" in2="effect1_dropShadow_301_8814" result="shape"/>
</filter>
</defs>
</svg>
