<svg width="1881" height="1881" viewBox="0 0 1881 1881" fill="none" xmlns="http://www.w3.org/2000/svg">
<g filter="url(#filter0_d_301_8895)">
<rect x="40.3438" y="36.4062" width="1800" height="1800" rx="320" fill="#1D1F23"/>
<rect x="40.8438" y="36.9062" width="1799" height="1799" rx="319.5" stroke="black"/>
</g>
<path d="M936.871 438.73L963.557 488.852C969.556 498.101 976.056 506.288 983.711 513.912C1006.16 536.077 1027.08 559.733 1046.33 584.72C1091.55 644.09 1122.05 710.023 1143.83 781.33C1156.89 824.889 1163.98 869.573 1164.51 914.757C1166.7 1049.84 1120.39 1165.83 1027.02 1262.23C1011.83 1277.52 995.426 1291.54 977.962 1304.17C968.712 1304.17 964.338 1297.07 960.526 1290.54C953.583 1278.43 948.963 1265.13 946.902 1251.33C943.621 1234.98 941.464 1218.64 942.527 1201.77V1194.14C941.777 1192.52 933.621 442.574 936.871 438.73V438.73Z" fill="#599636"/>
<path d="M936.871 437.075C935.777 434.888 934.684 436.544 933.59 437.606C934.121 448.543 930.309 458.292 924.341 467.604C917.779 476.853 909.092 483.947 900.374 491.571C851.94 533.505 813.818 584.158 783.288 640.81C742.666 717.054 721.73 798.767 715.793 884.792C713.075 915.821 725.605 1025.31 735.386 1056.9C762.071 1140.77 810.005 1211.05 872.095 1272.04C887.343 1286.73 903.655 1300.36 920.529 1313.45C925.434 1313.45 925.966 1309.07 927.091 1305.82C929.241 1298.87 930.881 1291.77 931.996 1284.57L942.933 1202.89L936.871 437.075Z" fill="#6CAC48"/>
<path d="M963.557 1337.35C964.65 1324.85 970.65 1314.48 977.181 1304.14C970.619 1301.42 965.744 1296.01 961.932 1289.98C958.644 1284.27 955.923 1278.25 953.807 1272.01C946.183 1249.14 944.558 1225.14 942.371 1201.77V1187.61C939.652 1189.8 939.089 1208.3 939.089 1211.05C937.499 1235.75 934.221 1260.32 929.278 1284.57C927.653 1294.39 926.559 1304.17 920.528 1312.88C920.528 1313.98 920.528 1315.07 921.06 1316.7C930.871 1345.57 933.559 1374.97 935.215 1404.94V1415.88C935.215 1428.94 934.684 1426.19 945.527 1430.56C949.901 1432.19 954.776 1432.75 959.151 1436C962.432 1436 962.963 1433.28 962.963 1431.09L961.338 1413.13V1363.01C960.807 1354.26 962.432 1345.57 963.525 1337.38L963.557 1337.35Z" fill="#C2BFBF"/>
<defs>
<filter id="filter0_d_301_8895" x="0.34375" y="0.40625" width="1880" height="1880" filterUnits="userSpaceOnUse" color-interpolation-filters="sRGB">
<feFlood flood-opacity="0" result="BackgroundImageFix"/>
<feColorMatrix in="SourceAlpha" type="matrix" values="0 0 0 0 0 0 0 0 0 0 0 0 0 0 0 0 0 0 127 0" result="hardAlpha"/>
<feOffset dy="4"/>
<feGaussianBlur stdDeviation="20"/>
<feComposite in2="hardAlpha" operator="out"/>
<feColorMatrix type="matrix" values="0 0 0 0 0.0367917 0 0 0 0 0.0348958 0 0 0 0 0.0484375 0 0 0 0.1 0"/>
<feBlend mode="normal" in2="BackgroundImageFix" result="effect1_dropShadow_301_8895"/>
<feBlend mode="normal" in="SourceGraphic" in2="effect1_dropShadow_301_8895" result="shape"/>
</filter>
</defs>
</svg>
