<svg width="1881" height="1881" viewBox="0 0 1881 1881" fill="none" xmlns="http://www.w3.org/2000/svg">
<g filter="url(#filter0_d_22_657)">
<rect x="40.1719" y="36.4062" width="1800" height="1800" rx="320" fill="white"/>
<rect x="40.6719" y="36.9062" width="1799" height="1799" rx="319.5" stroke="white"/>
</g>
<path d="M1430.14 848.094C1427.43 845.94 1402.11 826.823 1348.71 826.823C1334.61 826.884 1320.55 828.093 1306.64 830.439C1296.31 759.607 1237.75 725.073 1235.12 723.524L1220.79 715.256L1211.36 728.863C1199.55 747.142 1190.93 767.292 1185.86 788.457C1176.3 828.89 1182.12 866.866 1202.66 899.333C1177.86 913.155 1138.07 916.557 1130.02 916.858H471.303C454.097 916.882 440.136 930.786 440.042 947.99C439.274 1005.7 449.051 1063.06 468.891 1117.25C491.583 1176.76 525.342 1220.6 569.262 1247.42C618.478 1277.56 698.439 1294.79 789.077 1294.79C830.024 1294.91 870.893 1291.21 911.15 1283.72C967.11 1273.44 1020.96 1253.89 1070.47 1225.85C1111.26 1202.22 1147.98 1172.17 1179.19 1136.85C1231.38 1077.77 1262.47 1011.97 1285.59 953.501H1294.8C1351.94 953.501 1387.08 930.636 1406.46 911.476C1419.33 899.255 1429.39 884.369 1435.91 867.857L1440 855.887L1430.14 848.094Z" fill="#2496ED"/>
<path d="M532.36 897.569H620.631C624.888 897.569 628.338 894.117 628.338 889.861V811.235C628.361 806.978 624.93 803.508 620.674 803.484C620.66 803.484 620.645 803.484 620.631 803.484H532.36C528.103 803.484 524.653 806.936 524.653 811.191V811.235V889.86C524.653 894.117 528.103 897.569 532.36 897.569V897.569Z" fill="#2496ED"/>
<path d="M654.002 897.569H742.272C746.53 897.569 749.98 894.117 749.98 889.861V811.235C750.003 806.978 746.572 803.508 742.314 803.484C742.3 803.484 742.285 803.484 742.271 803.484H654C649.719 803.484 646.25 806.954 646.25 811.235V889.86C646.275 894.124 649.738 897.569 654.002 897.569" fill="#2496ED"/>
<path d="M777.494 897.569H865.764C870.022 897.569 873.471 894.117 873.471 889.861V811.235C873.495 806.978 870.064 803.508 865.806 803.484C865.792 803.484 865.777 803.484 865.763 803.484H777.492C773.235 803.484 769.785 806.936 769.785 811.191V811.235V889.86C769.787 894.117 773.238 897.569 777.494 897.569V897.569Z" fill="#2496ED"/>
<path d="M899.523 897.569H987.794C992.058 897.569 995.52 894.126 995.544 889.861V811.235C995.544 806.954 992.075 803.484 987.794 803.484H899.523C895.266 803.484 891.816 806.936 891.816 811.191V811.235V889.86C891.816 894.117 895.267 897.569 899.523 897.569V897.569Z" fill="#2496ED"/>
<path d="M654.001 784.454H742.272C746.535 784.43 749.979 780.966 749.979 776.703V698.078C749.979 693.821 746.528 690.371 742.272 690.371H654.001C649.739 690.371 646.275 693.814 646.251 698.078V776.703C646.275 780.975 649.73 784.43 654.001 784.454Z" fill="#2496ED"/>
<path d="M777.493 784.454H865.764C870.027 784.43 873.471 780.966 873.471 776.703V698.078C873.471 693.821 870.02 690.371 865.764 690.371H777.493C773.236 690.371 769.786 693.822 769.786 698.078V776.703C769.786 780.966 773.23 784.43 777.493 784.454Z" fill="#2496ED"/>
<path d="M899.523 784.454H987.794C992.065 784.43 995.52 780.975 995.544 776.703V698.078C995.52 693.814 992.058 690.371 987.794 690.371H899.523C895.266 690.371 891.816 693.822 891.816 698.078V776.703C891.816 780.966 895.26 784.43 899.523 784.454Z" fill="#2496ED"/>
<path d="M899.523 671.295H987.794C992.058 671.295 995.52 667.851 995.544 663.588V584.918C995.52 580.654 992.058 577.211 987.794 577.211H899.523C895.266 577.211 891.816 580.661 891.816 584.918V663.587C891.816 667.844 895.267 671.295 899.523 671.295Z" fill="#2496ED"/>
<path d="M1022.63 897.569H1110.9C1115.16 897.569 1118.63 894.126 1118.65 889.861V811.235C1118.65 806.954 1115.18 803.484 1110.9 803.484H1022.63C1018.37 803.484 1014.92 806.936 1014.92 811.191V811.235V889.86C1014.92 894.117 1018.37 897.569 1022.63 897.569" fill="#2496ED"/>
<defs>
<filter id="filter0_d_22_657" x="0.171875" y="0.40625" width="1880" height="1880" filterUnits="userSpaceOnUse" color-interpolation-filters="sRGB">
<feFlood flood-opacity="0" result="BackgroundImageFix"/>
<feColorMatrix in="SourceAlpha" type="matrix" values="0 0 0 0 0 0 0 0 0 0 0 0 0 0 0 0 0 0 127 0" result="hardAlpha"/>
<feOffset dy="4"/>
<feGaussianBlur stdDeviation="20"/>
<feComposite in2="hardAlpha" operator="out"/>
<feColorMatrix type="matrix" values="0 0 0 0 0.0367917 0 0 0 0 0.0348958 0 0 0 0 0.0484375 0 0 0 0.1 0"/>
<feBlend mode="normal" in2="BackgroundImageFix" result="effect1_dropShadow_22_657"/>
<feBlend mode="normal" in="SourceGraphic" in2="effect1_dropShadow_22_657" result="shape"/>
</filter>
</defs>
</svg>
