<svg width="1881" height="1881" viewBox="0 0 1881 1881" fill="none" xmlns="http://www.w3.org/2000/svg">
<g filter="url(#filter0_d_22_662)">
<rect x="40.4478" y="36.4062" width="1800" height="1800" rx="320" fill="white"/>
<rect x="40.9478" y="36.9062" width="1799" height="1799" rx="319.5" stroke="white"/>
</g>
<path d="M940.002 448.342C663.894 448.342 440 672.197 440 948.344C440 1169.26 583.266 1356.68 781.933 1422.8C806.92 1427.42 816.097 1411.95 816.097 1398.74C816.097 1386.82 815.63 1347.43 815.418 1305.65C676.313 1335.9 646.961 1246.66 646.961 1246.66C624.217 1188.86 591.446 1173.5 591.446 1173.5C546.083 1142.47 594.865 1143.1 594.865 1143.1C645.075 1146.63 671.513 1194.63 671.513 1194.63C716.108 1271.07 788.482 1248.97 817.014 1236.2C821.5 1203.88 834.461 1181.82 848.758 1169.34C737.703 1156.69 620.954 1113.82 620.954 922.231C620.954 867.645 640.487 823.038 672.474 788.024C667.282 775.428 650.169 724.575 677.317 655.703C677.317 655.703 719.304 642.264 814.853 706.956C854.734 695.874 897.509 690.321 940.002 690.133C982.495 690.321 1025.3 695.874 1065.26 706.956C1160.7 642.264 1202.62 655.703 1202.62 655.703C1229.84 724.575 1212.72 775.428 1207.53 788.024C1239.58 823.038 1258.98 867.641 1258.98 922.231C1258.98 1114.27 1142.01 1156.56 1030.68 1168.94C1048.61 1184.45 1064.59 1214.88 1064.59 1261.53C1064.59 1328.43 1064.01 1382.27 1064.01 1398.74C1064.01 1412.05 1073.01 1427.64 1098.36 1422.73C1296.91 1356.54 1440 1169.19 1440 948.344C1440 672.197 1216.14 448.342 940.002 448.342Z" fill="#161614"/>
<path d="M627.267 1160.61C626.169 1163.09 622.255 1163.83 618.699 1162.13C615.071 1160.5 613.032 1157.11 614.209 1154.62C615.287 1152.06 619.201 1151.35 622.82 1153.07C626.455 1154.69 628.526 1158.11 627.267 1160.61V1160.61ZM651.862 1182.55C649.478 1184.76 644.815 1183.74 641.651 1180.24C638.38 1176.76 637.769 1172.1 640.188 1169.85C642.647 1167.64 647.168 1168.67 650.447 1172.16C653.717 1175.69 654.352 1180.32 651.858 1182.56L651.862 1182.55ZM668.736 1210.63C665.67 1212.76 660.658 1210.76 657.564 1206.32C654.501 1201.87 654.501 1196.54 657.631 1194.4C660.736 1192.27 665.67 1194.19 668.807 1198.6C671.865 1203.12 671.865 1208.45 668.732 1210.63L668.736 1210.63ZM697.268 1243.15C694.527 1246.17 688.692 1245.36 684.418 1241.24C680.049 1237.2 678.83 1231.48 681.579 1228.46C684.351 1225.43 690.222 1226.28 694.527 1230.37C698.868 1234.4 700.194 1240.16 697.272 1243.15H697.268ZM734.146 1254.13C732.942 1258.04 727.318 1259.82 721.656 1258.16C716.001 1256.45 712.299 1251.86 713.441 1247.9C714.617 1243.96 720.264 1242.11 725.969 1243.89C731.616 1245.59 735.326 1250.15 734.15 1254.13H734.146ZM776.121 1258.78C776.262 1262.91 771.458 1266.33 765.513 1266.4C759.533 1266.53 754.698 1263.2 754.635 1259.14C754.635 1254.98 759.329 1251.59 765.305 1251.49C771.25 1251.37 776.121 1254.69 776.121 1258.78V1258.78ZM817.351 1257.2C818.064 1261.23 813.931 1265.36 808.029 1266.46C802.226 1267.52 796.853 1265.04 796.112 1261.05C795.391 1256.92 799.602 1252.79 805.394 1251.72C811.308 1250.69 816.598 1253.11 817.351 1257.2" fill="#161614"/>
<defs>
<filter id="filter0_d_22_662" x="0.447754" y="0.40625" width="1880" height="1880" filterUnits="userSpaceOnUse" color-interpolation-filters="sRGB">
<feFlood flood-opacity="0" result="BackgroundImageFix"/>
<feColorMatrix in="SourceAlpha" type="matrix" values="0 0 0 0 0 0 0 0 0 0 0 0 0 0 0 0 0 0 127 0" result="hardAlpha"/>
<feOffset dy="4"/>
<feGaussianBlur stdDeviation="20"/>
<feComposite in2="hardAlpha" operator="out"/>
<feColorMatrix type="matrix" values="0 0 0 0 0.0367917 0 0 0 0 0.0348958 0 0 0 0 0.0484375 0 0 0 0.1 0"/>
<feBlend mode="normal" in2="BackgroundImageFix" result="effect1_dropShadow_22_662"/>
<feBlend mode="normal" in="SourceGraphic" in2="effect1_dropShadow_22_662" result="shape"/>
</filter>
</defs>
</svg>
