<svg width="1881" height="1881" viewBox="0 0 1881 1881" fill="none" xmlns="http://www.w3.org/2000/svg">
<g filter="url(#filter0_d_20_1661)">
<rect x="40.1719" y="36.4058" width="1800" height="1800" rx="320" fill="white"/>
<rect x="40.6719" y="36.9058" width="1799" height="1799" rx="319.5" stroke="white"/>
</g>
<path d="M1440 436H440V1436H1440V436Z" fill="#F7DF1E"/>
<path d="M979.444 1040.46C999.587 1073.35 1025.79 1097.52 1072.14 1097.52C1111.08 1097.52 1135.95 1078.06 1135.95 1051.17C1135.95 1018.95 1110.4 1007.54 1067.54 988.794L1044.05 978.714C976.238 949.825 931.19 913.635 931.19 837.127C931.19 766.651 984.889 713 1068.81 713C1128.56 713 1171.51 733.794 1202.46 788.238L1129.29 835.222C1113.17 806.333 1095.79 794.952 1068.81 794.952C1041.29 794.952 1023.84 812.413 1023.84 835.222C1023.84 863.413 1041.3 874.825 1081.62 892.286L1105.11 902.349C1184.95 936.587 1230.03 971.492 1230.03 1049.97C1230.03 1134.57 1163.57 1180.92 1074.32 1180.92C987.048 1180.92 930.667 1139.33 903.079 1084.83L979.444 1040.46ZM647.492 1048.6C662.254 1074.79 675.683 1096.94 707.968 1096.94C738.841 1096.94 758.317 1084.86 758.317 1037.89V718.365H852.286V1039.16C852.286 1136.46 795.238 1180.75 711.968 1180.75C636.73 1180.75 593.159 1141.81 571 1094.91L647.492 1048.6Z" fill="black"/>
<defs>
<filter id="filter0_d_20_1661" x="0.171875" y="0.405762" width="1880" height="1880" filterUnits="userSpaceOnUse" color-interpolation-filters="sRGB">
<feFlood flood-opacity="0" result="BackgroundImageFix"/>
<feColorMatrix in="SourceAlpha" type="matrix" values="0 0 0 0 0 0 0 0 0 0 0 0 0 0 0 0 0 0 127 0" result="hardAlpha"/>
<feOffset dy="4"/>
<feGaussianBlur stdDeviation="20"/>
<feComposite in2="hardAlpha" operator="out"/>
<feColorMatrix type="matrix" values="0 0 0 0 0.0367917 0 0 0 0 0.0348958 0 0 0 0 0.0484375 0 0 0 0.1 0"/>
<feBlend mode="normal" in2="BackgroundImageFix" result="effect1_dropShadow_20_1661"/>
<feBlend mode="normal" in="SourceGraphic" in2="effect1_dropShadow_20_1661" result="shape"/>
</filter>
</defs>
</svg>
