<svg width="1881" height="1881" viewBox="0 0 1881 1881" fill="none" xmlns="http://www.w3.org/2000/svg">
<g filter="url(#filter0_d_25_416)">
<rect x="40.7241" y="36.4062" width="1800" height="1800" rx="320" fill="white"/>
<rect x="41.2241" y="36.9062" width="1799" height="1799" rx="319.5" stroke="white"/>
</g>
<path d="M1362.1 1208.45C1307.7 1207.08 1265.53 1212.6 1230.16 1227.79C1219.96 1231.92 1203.63 1231.93 1202.27 1245.05C1207.71 1250.57 1208.39 1259.55 1213.16 1267.14C1221.33 1280.94 1235.6 1299.59 1248.52 1309.26C1262.8 1320.3 1277.09 1331.34 1292.05 1341.01C1318.58 1357.58 1348.5 1367.24 1374.35 1383.81C1389.32 1393.47 1404.27 1405.91 1419.23 1416.26C1426.72 1421.78 1431.47 1430.76 1441 1434.21V1432.14C1436.23 1425.92 1434.87 1416.95 1430.12 1410.05C1423.32 1403.14 1416.51 1396.93 1409.71 1390.02C1389.99 1363.1 1365.51 1339.63 1338.98 1320.3C1317.22 1305.11 1269.6 1284.4 1260.77 1258.85C1260.77 1258.85 1260.08 1258.17 1259.41 1257.48C1274.37 1256.09 1292.05 1250.57 1306.34 1246.43C1329.46 1240.21 1350.54 1241.6 1374.35 1235.38C1385.23 1232.62 1396.11 1229.17 1406.99 1225.71V1219.5C1394.75 1207.08 1385.91 1190.51 1372.99 1178.77C1338.3 1148.39 1300.21 1118.71 1260.77 1093.85C1239.68 1080.04 1212.47 1071.07 1190.03 1059.33C1181.87 1055.19 1168.27 1053.12 1163.51 1046.22C1151.26 1031.03 1144.46 1011.01 1135.62 993.058C1115.9 955.082 1096.85 912.972 1079.85 872.934C1067.61 846.006 1060.13 819.078 1045.16 794.229C975.111 676.863 898.936 605.754 781.957 536.021C756.789 521.526 726.864 515.312 694.898 507.721C677.901 507.026 660.892 505.649 643.891 504.955C633.008 500.122 622.124 487.007 612.602 480.793C573.842 455.936 473.856 402.092 445.291 473.202C426.925 518.073 472.499 562.255 488.136 585.044C499.707 600.921 514.664 618.869 522.826 636.82C527.588 648.55 528.944 660.987 533.706 673.411C544.593 703.779 554.788 737.616 569.076 765.924C576.559 780.42 584.717 795.606 594.24 808.725C599.682 816.316 609.201 819.772 611.245 832.197C601.726 846.006 601.042 866.72 595.596 883.977C571.113 961.991 580.64 1058.64 615.322 1115.94C626.202 1133.2 652.049 1171.18 686.736 1156.68C717.345 1144.25 710.543 1104.9 719.378 1070.38C721.426 1062.09 720.066 1056.57 724.143 1051.05V1052.43C733.666 1071.76 743.185 1090.4 752.028 1109.73C773.114 1143.56 809.837 1178.77 840.442 1202.25C856.771 1214.67 869.691 1236.07 890.097 1243.67V1241.59H888.733C884.652 1235.38 878.53 1232.62 873.092 1227.78C860.852 1215.36 847.245 1200.17 837.726 1186.36C809.165 1147.7 783.993 1104.9 761.551 1060.71C750.671 1039.31 741.144 1015.84 732.306 994.439C728.221 986.145 728.221 973.725 721.422 969.586C711.219 984.772 696.259 997.891 688.777 1016.53C675.86 1046.21 674.496 1082.81 669.735 1120.77C667.014 1121.47 668.37 1120.77 667.01 1122.16C645.251 1116.63 637.769 1093.85 629.603 1074.52C609.197 1025.51 605.796 946.801 623.485 890.191C628.246 875.692 648.652 830.129 640.49 816.32C636.409 803.201 622.801 795.606 615.322 785.253C606.484 772.135 596.957 755.571 590.839 741.068C574.514 702.406 566.352 659.602 548.67 620.94C540.508 602.988 526.231 584.354 514.664 567.783C501.744 549.144 487.46 536.021 477.257 513.931C473.859 506.34 469.094 493.911 474.536 485.626C475.896 480.102 478.613 478.035 484.059 476.654C492.901 469.055 518.069 478.721 526.904 482.864C552.071 493.213 573.154 502.887 594.24 517.383C603.759 524.288 613.962 537.406 626.202 540.859H640.486C662.253 545.688 686.732 542.239 707.138 548.45C743.189 560.183 775.831 577.445 805.08 596.087C894.179 653.388 967.625 734.854 1017.28 832.197C1025.44 848.069 1028.84 862.577 1036.32 879.14C1050.61 912.972 1068.29 947.491 1082.57 980.629C1096.85 1013.07 1110.45 1046.22 1130.86 1073.14C1141.06 1087.63 1181.87 1095.23 1200.23 1102.83C1213.84 1109.04 1234.92 1114.57 1247.16 1122.16C1270.28 1136.65 1293.41 1153.23 1315.17 1169.1C1326.06 1177.39 1360.06 1194.65 1362.1 1208.45V1208.45Z" fill="#00546B"/>
<path d="M668.367 608.508C656.807 608.508 648.649 609.897 640.486 611.964V613.345H641.847C647.292 624.392 656.807 631.987 663.605 641.65C669.051 652.693 673.808 663.745 679.254 674.792C679.93 674.097 680.61 673.411 680.61 673.411C690.137 666.502 694.895 655.459 694.895 638.888C690.814 634.059 690.133 629.226 686.732 624.392C682.655 617.484 673.808 614.035 668.367 608.508V608.508Z" fill="#00546B"/>
<defs>
<filter id="filter0_d_25_416" x="0.724121" y="0.40625" width="1880" height="1880" filterUnits="userSpaceOnUse" color-interpolation-filters="sRGB">
<feFlood flood-opacity="0" result="BackgroundImageFix"/>
<feColorMatrix in="SourceAlpha" type="matrix" values="0 0 0 0 0 0 0 0 0 0 0 0 0 0 0 0 0 0 127 0" result="hardAlpha"/>
<feOffset dy="4"/>
<feGaussianBlur stdDeviation="20"/>
<feComposite in2="hardAlpha" operator="out"/>
<feColorMatrix type="matrix" values="0 0 0 0 0.0367917 0 0 0 0 0.0348958 0 0 0 0 0.0484375 0 0 0 0.1 0"/>
<feBlend mode="normal" in2="BackgroundImageFix" result="effect1_dropShadow_25_416"/>
<feBlend mode="normal" in="SourceGraphic" in2="effect1_dropShadow_25_416" result="shape"/>
</filter>
</defs>
</svg>
