<svg width="1881" height="1881" viewBox="0 0 1881 1881" fill="none" xmlns="http://www.w3.org/2000/svg">
<g filter="url(#filter0_d_305_334)">
<rect x="40.7241" y="36.4062" width="1800" height="1800" rx="320" fill="white"/>
<rect x="41.2241" y="36.9062" width="1799" height="1799" rx="319.5" stroke="white"/>
</g>
<path fill-rule="evenodd" clip-rule="evenodd" d="M626.529 808.106C635.252 820.129 708.805 842.808 818.523 866.43C928.24 887.459 1042.34 970.489 1131.08 944.887C1191.1 927.536 1256.21 772.932 1256.21 749.97V747.612C1256.21 731.582 1244.19 718.71 1223.78 708.007C1140.08 665.242 1124.24 649.494 1093.22 658.028C932.154 702.49 647.793 679.764 626.529 808.106Z" fill="#380D09"/>
<path fill-rule="evenodd" clip-rule="evenodd" d="M626.529 1122.03C635.252 1134.24 708.805 1156.73 818.523 1180.4C941.112 1202.75 1047.72 1275.6 1136.5 1249.95C1196.52 1232.59 1256.21 1086.9 1256.21 1063.89V1061.63C1256.21 1045.65 1244.19 1032.73 1223.78 1022.07C1159.93 988.123 1075.58 950.733 1044.61 959.267C883.259 1003.64 667.596 1013.4 626.529 1122.03Z" fill="#380D09"/>
<path fill-rule="evenodd" clip-rule="evenodd" d="M625.633 875.578V877.841C625.585 877.088 625.585 876.332 625.633 875.578Z" fill="#555555"/>
<path fill-rule="evenodd" clip-rule="evenodd" d="M1136.27 496.682C987.932 539.541 752.608 563.729 625.822 563.729V805.843C625.862 806.676 626.177 807.471 626.718 808.106C713.237 808.106 980.341 779.816 1141.5 735.495C1169.61 728.342 1197.16 719.187 1223.96 708.101C1243.67 699.237 1256.4 689.902 1256.4 680.189V436C1256.21 459.009 1196.29 479.378 1136.27 496.682Z" fill="#DE3423"/>
<path fill-rule="evenodd" clip-rule="evenodd" d="M1136.27 810.652C1047.48 836.255 927.675 855.303 818.523 866.431C745.252 873.927 676.791 877.841 625.822 877.841V1119.77C625.862 1120.6 626.177 1121.4 626.718 1122.03C713.237 1122.03 980.341 1093.74 1141.5 1049.47C1169.6 1042.29 1197.16 1033.14 1223.96 1022.07C1243.67 1013.16 1256.4 1003.87 1256.4 994.159V749.971C1256.21 772.933 1196.29 793.301 1136.27 810.652Z" fill="#DE3423"/>
<path fill-rule="evenodd" clip-rule="evenodd" d="M1136.26 1124.81C1047.48 1150.41 927.674 1169.42 818.523 1180.59C745.157 1188.09 676.602 1192 625.633 1192V1436C711.257 1436 979.728 1407.95 1141.31 1363.44C1200.86 1347.03 1256.21 1328.36 1256.21 1308.08V1063.89C1256.21 1087.09 1196.29 1107.27 1136.26 1124.81Z" fill="#DE3423"/>
<defs>
<filter id="filter0_d_305_334" x="0.724121" y="0.40625" width="1880" height="1880" filterUnits="userSpaceOnUse" color-interpolation-filters="sRGB">
<feFlood flood-opacity="0" result="BackgroundImageFix"/>
<feColorMatrix in="SourceAlpha" type="matrix" values="0 0 0 0 0 0 0 0 0 0 0 0 0 0 0 0 0 0 127 0" result="hardAlpha"/>
<feOffset dy="4"/>
<feGaussianBlur stdDeviation="20"/>
<feComposite in2="hardAlpha" operator="out"/>
<feColorMatrix type="matrix" values="0 0 0 0 0.0367917 0 0 0 0 0.0348958 0 0 0 0 0.0484375 0 0 0 0.1 0"/>
<feBlend mode="normal" in2="BackgroundImageFix" result="effect1_dropShadow_305_334"/>
<feBlend mode="normal" in="SourceGraphic" in2="effect1_dropShadow_305_334" result="shape"/>
</filter>
</defs>
</svg>
