<svg width="1881" height="1881" viewBox="0 0 1881 1881" fill="none" xmlns="http://www.w3.org/2000/svg">
<g filter="url(#filter0_d_307_751)">
<rect x="40.7241" y="36.4058" width="1800" height="1800" rx="320" fill="white"/>
<rect x="41.2241" y="36.9058" width="1799" height="1799" rx="319.5" stroke="white"/>
</g>
<path d="M1351.59 493.958C1337.22 528.886 1318.64 559.85 1298.08 587.593C1207.42 495.197 1080.59 436.489 940.635 436.489C665.675 436.489 441 659.925 441 935.876C441 1080.04 502.68 1209.85 600.526 1301.5L619.105 1318.1C705.556 1391.17 818.017 1435.51 940.387 1435.51C1202.96 1435.51 1419.21 1230.65 1437.79 972.042C1452.65 846.452 1414.51 685.687 1351.59 493.958ZM672.858 1305.71C658.491 1324.29 631.738 1326.27 613.16 1311.9C594.581 1297.54 592.6 1270.78 606.967 1252.2C621.334 1233.63 648.087 1231.64 666.665 1246.01C684.253 1260.38 687.225 1287.13 672.858 1305.71ZM1348.62 1156.34C1226 1320.08 962.433 1264.59 794.485 1272.76C794.485 1272.76 764.512 1274.75 734.786 1278.96C734.786 1278.96 746.181 1273.76 760.548 1268.55C878.954 1227.43 934.69 1219.01 1006.77 1182.1C1141.78 1112.99 1276.53 961.638 1303.53 805.084C1252.01 955.445 1095.45 1085.25 953.268 1137.76C855.422 1173.93 679.299 1208.85 679.299 1208.85L672.115 1204.64C552.718 1145.94 548.507 886.334 766.989 802.855C862.853 765.698 953.516 786.258 1057.55 761.735C1167.79 735.973 1295.61 653.485 1346.88 545.482C1404.1 719.624 1474.21 989.382 1348.62 1156.34Z" fill="#6CB52D"/>
<path d="M672.858 1305.71C658.491 1324.29 631.738 1326.27 613.16 1311.9C594.581 1297.53 592.6 1270.78 606.967 1252.2C621.334 1233.63 648.087 1231.64 666.666 1246.01C684.253 1260.38 687.226 1287.13 672.858 1305.71Z" fill="#6CB52D"/>
<defs>
<filter id="filter0_d_307_751" x="0.724121" y="0.405762" width="1880" height="1880" filterUnits="userSpaceOnUse" color-interpolation-filters="sRGB">
<feFlood flood-opacity="0" result="BackgroundImageFix"/>
<feColorMatrix in="SourceAlpha" type="matrix" values="0 0 0 0 0 0 0 0 0 0 0 0 0 0 0 0 0 0 127 0" result="hardAlpha"/>
<feOffset dy="4"/>
<feGaussianBlur stdDeviation="20"/>
<feComposite in2="hardAlpha" operator="out"/>
<feColorMatrix type="matrix" values="0 0 0 0 0.0367917 0 0 0 0 0.0348958 0 0 0 0 0.0484375 0 0 0 0.1 0"/>
<feBlend mode="normal" in2="BackgroundImageFix" result="effect1_dropShadow_307_751"/>
<feBlend mode="normal" in="SourceGraphic" in2="effect1_dropShadow_307_751" result="shape"/>
</filter>
</defs>
</svg>
