<svg width="1881" height="1881" viewBox="0 0 1881 1881" fill="none" xmlns="http://www.w3.org/2000/svg">
<g filter="url(#filter0_d_22_681)">
<rect x="40.3433" y="36.4058" width="1800" height="1800" rx="320" fill="white"/>
<rect x="40.8433" y="36.9058" width="1799" height="1799" rx="319.5" stroke="white"/>
</g>
<path d="M440 436H1440V1436H440V436Z" fill="#017ACB"/>
<path d="M920.157 806.312H968.126V889.125H838.438V1257.56L835 1258.5C830.313 1259.75 768.594 1259.75 755.313 1258.34L744.688 1257.41V889.125H615V806.312L656.094 805.844C678.594 805.531 736.406 805.531 784.532 805.844C832.657 806.156 893.594 806.312 920.157 806.312V806.312ZM1286.25 1218.5C1267.19 1238.66 1246.72 1249.91 1212.66 1259.12C1197.81 1263.19 1195.31 1263.34 1161.88 1263.19C1128.44 1263.03 1125.78 1263.03 1109.53 1258.81C1067.5 1248.03 1033.59 1226.94 1010.47 1197.09C1003.91 1188.66 993.126 1171.16 993.126 1168.97C993.126 1168.34 994.688 1166.94 996.719 1166C998.751 1165.06 1002.97 1162.41 1006.41 1160.37C1009.84 1158.34 1016.09 1154.59 1020.31 1152.41C1024.53 1150.22 1036.72 1143.03 1047.34 1136.62C1057.97 1130.22 1067.66 1125.06 1068.75 1125.06C1069.84 1125.06 1071.88 1127.25 1073.44 1129.91C1082.81 1145.69 1104.69 1165.84 1120.16 1172.72C1129.69 1176.78 1150.78 1181.31 1160.94 1181.31C1170.31 1181.31 1187.5 1177.25 1196.72 1173.03C1206.56 1168.5 1211.56 1163.97 1217.5 1154.91C1221.56 1148.5 1222.03 1146.78 1221.88 1134.59C1221.88 1123.34 1221.25 1120.22 1218.13 1115.06C1209.38 1100.69 1197.5 1093.19 1149.38 1071.94C1099.69 1049.91 1077.34 1036.78 1059.22 1019.12C1045.78 1006 1043.13 1002.41 1034.69 986C1023.75 964.906 1022.34 958.031 1022.19 926.625C1022.03 904.594 1022.5 897.406 1024.84 889.906C1028.13 878.656 1038.75 856.937 1043.59 851.469C1053.59 839.75 1057.19 836.156 1064.22 830.375C1085.47 812.875 1118.59 801.312 1150.31 800.219C1153.91 800.219 1165.78 800.844 1176.88 801.625C1208.75 804.281 1230.47 812.094 1251.41 828.812C1267.19 841.312 1291.09 870.688 1288.75 874.594C1287.19 876.938 1224.84 918.5 1220.78 919.75C1218.28 920.531 1216.56 919.594 1213.13 915.531C1191.88 890.062 1183.28 884.594 1162.66 883.344C1147.97 882.406 1140.16 884.125 1130.31 890.687C1120 897.562 1115 908.031 1115 922.562C1115.16 943.812 1123.28 953.812 1153.28 968.656C1172.66 978.187 1189.22 986 1190.47 986C1192.34 986 1232.5 1006 1242.97 1012.25C1291.72 1040.84 1311.56 1070.22 1316.72 1120.84C1320.47 1158.97 1309.69 1193.81 1286.25 1218.5V1218.5Z" fill="white"/>
<defs>
<filter id="filter0_d_22_681" x="0.343262" y="0.405762" width="1880" height="1880" filterUnits="userSpaceOnUse" color-interpolation-filters="sRGB">
<feFlood flood-opacity="0" result="BackgroundImageFix"/>
<feColorMatrix in="SourceAlpha" type="matrix" values="0 0 0 0 0 0 0 0 0 0 0 0 0 0 0 0 0 0 127 0" result="hardAlpha"/>
<feOffset dy="4"/>
<feGaussianBlur stdDeviation="20"/>
<feComposite in2="hardAlpha" operator="out"/>
<feColorMatrix type="matrix" values="0 0 0 0 0.0367917 0 0 0 0 0.0348958 0 0 0 0 0.0484375 0 0 0 0.1 0"/>
<feBlend mode="normal" in2="BackgroundImageFix" result="effect1_dropShadow_22_681"/>
<feBlend mode="normal" in="SourceGraphic" in2="effect1_dropShadow_22_681" result="shape"/>
</filter>
</defs>
</svg>
